<svg width="40" height="40" viewBox="0 0 40 40" fill="none" xmlns="http://www.w3.org/2000/svg">
<path d="M20.1659 20L20 36.0641" stroke="white" stroke-width="2" stroke-linecap="round" stroke-linejoin="round"/>
<path d="M34.375 27.3957V12.6043C34.375 12.383 34.3162 12.1656 34.2047 11.9744C34.0931 11.7832 33.9328 11.625 33.7401 11.5161L20.6151 4.09765C20.4274 3.99159 20.2155 3.93585 20 3.93585C19.7845 3.93585 19.5726 3.99159 19.3849 4.09765L6.25993 11.5161C6.06722 11.625 5.90689 11.7832 5.79534 11.9744C5.68378 12.1656 5.625 12.383 5.625 12.6043V27.3957C5.625 27.617 5.68378 27.8344 5.79534 28.0256C5.90689 28.2168 6.06722 28.375 6.25993 28.4839L19.3849 35.9024C19.5726 36.0084 19.7845 36.0641 20 36.0641C20.2155 36.0641 20.4274 36.0084 20.6151 35.9024L33.7401 28.4839C33.9328 28.375 34.0931 28.2168 34.2047 28.0256C34.3162 27.8344 34.375 27.617 34.375 27.3957V27.3957Z" stroke="white" stroke-width="2" stroke-linecap="round" stroke-linejoin="round"/>
<path d="M34.2038 11.973L20.166 20L5.79736 11.9713" stroke="white" stroke-width="2" stroke-linecap="round" stroke-linejoin="round"/>
</svg>
