<svg width="169" height="186" viewBox="0 0 169 186" fill="none" xmlns="http://www.w3.org/2000/svg">
<path d="M35.2422 161.364C34.4461 162.743 34.9163 164.512 36.3235 165.256C46.8422 170.824 58.5031 173.929 70.4233 174.319C83.305 174.741 96.0919 171.979 107.651 166.279C119.211 160.578 129.186 152.115 136.693 141.638C144.201 131.162 149.008 118.996 150.691 106.217C152.373 93.4391 150.878 80.4431 146.338 68.3805C141.798 56.318 134.353 45.5613 124.663 37.0633C114.973 28.5652 103.336 22.5881 90.7844 19.6614C79.1694 16.9532 67.1022 16.9343 55.5009 19.5898C53.9489 19.945 53.0371 21.5313 53.4492 23.0692C53.8613 24.6071 55.4411 25.5139 56.9942 25.1631C67.6785 22.7504 78.7836 22.7836 89.4751 25.2765C101.104 27.9879 111.884 33.5253 120.861 41.3982C129.839 49.2711 136.736 59.2364 140.942 70.4115C145.148 81.5867 146.533 93.6266 144.974 105.465C143.416 117.303 138.962 128.574 132.007 138.28C125.052 147.986 115.81 155.826 105.101 161.108C94.3921 166.389 82.546 168.947 70.6119 168.557C59.6395 168.197 48.9042 165.355 39.2084 160.259C37.799 159.519 36.0383 159.986 35.2422 161.364Z" fill="#45AEA7"/>
</svg>
