<svg width="30" height="31" viewBox="0 0 30 31" fill="none" xmlns="http://www.w3.org/2000/svg">
<path d="M18.7491 28.4989V20.9987C18.7491 20.6672 18.6174 20.3493 18.383 20.1148C18.1485 19.8804 17.8306 19.7487 17.4991 19.7487H12.4991C12.1676 19.7487 11.8496 19.8804 11.6152 20.1148C11.3808 20.3493 11.2491 20.6672 11.2491 20.9987V28.4989C11.2491 28.8304 11.1174 29.1483 10.883 29.3827C10.6486 29.6171 10.3307 29.7488 9.99924 29.7489L2.50016 29.7499C2.33599 29.7499 2.17343 29.7176 2.02175 29.6548C1.87008 29.5919 1.73226 29.4999 1.61617 29.3838C1.50008 29.2677 1.40799 29.1299 1.34517 28.9782C1.28234 28.8266 1.25 28.664 1.25 28.4999V14.0529C1.25 13.8788 1.28639 13.7065 1.35684 13.5473C1.42728 13.388 1.53023 13.2452 1.65908 13.1281L14.1582 1.76326C14.3883 1.55405 14.6881 1.43812 14.9991 1.43811C15.3101 1.4381 15.6099 1.55401 15.84 1.7632L28.3409 13.1281C28.4697 13.2452 28.5727 13.388 28.6431 13.5473C28.7136 13.7066 28.75 13.8788 28.75 14.053V28.4999C28.75 28.664 28.7177 28.8266 28.6548 28.9783C28.592 29.1299 28.4999 29.2677 28.3838 29.3838C28.2677 29.4999 28.1299 29.5919 27.9782 29.6548C27.8266 29.7176 27.664 29.7499 27.4998 29.7499L19.9989 29.7489C19.6674 29.7488 19.3495 29.6171 19.1151 29.3827C18.8808 29.1483 18.7491 28.8304 18.7491 28.4989V28.4989Z" stroke="#45AEA7" stroke-width="2" stroke-linecap="round" stroke-linejoin="round"/>
</svg>
