<svg xmlns='http://www.w3.org/2000/svg' xmlns:xlink='http://www.w3.org/1999/xlink'>
    <defs>
        <symbol viewBox='0 0 32 32' id='ico_user' fill='transparent'>
            <path
                d='M16 20C20.4183 20 24 16.4183 24 12C24 7.58172 20.4183 4 16 4C11.5817 4 8 7.58172 8 12C8 16.4183 11.5817 20 16 20Z'
                stroke-width='2' stroke-linecap='round' stroke-linejoin='round'/>
            <path
                d='M3.87305 26.9988C5.1025 24.8708 6.87031 23.1037 8.9989 21.8752C11.1275 20.6467 13.5419 20 15.9996 20C18.4572 20 20.8716 20.6468 23.0002 21.8754C25.1288 23.1039 26.8965 24.871 28.1259 26.9991'
                stroke-width='2' stroke-linecap='round' stroke-linejoin='round'/>
        </symbol>
        <symbol viewBox='0 0 41 40' id='ico_home' fill='none'>
            <path
                d='M23.7491 32.4989V24.9987C23.7491 24.6672 23.6174 24.3493 23.383 24.1148C23.1485 23.8804 22.8306 23.7487 22.4991 23.7487H17.4991C17.1676 23.7487 16.8496 23.8804 16.6152 24.1148C16.3808 24.3493 16.2491 24.6672 16.2491 24.9987V32.4989C16.2491 32.8304 16.1174 33.1483 15.883 33.3827C15.6486 33.6171 15.3307 33.7488 14.9992 33.7489L7.50016 33.7499C7.33599 33.7499 7.17343 33.7176 7.02175 33.6548C6.87008 33.5919 6.73226 33.4999 6.61617 33.3838C6.50008 33.2677 6.40799 33.1299 6.34517 32.9782C6.28234 32.8266 6.25 32.664 6.25 32.4999V18.0529C6.25 17.8788 6.28639 17.7065 6.35684 17.5473C6.42728 17.388 6.53023 17.2452 6.65908 17.1281L19.1582 5.76326C19.3883 5.55405 19.6881 5.43812 19.9991 5.43811C20.3101 5.4381 20.6099 5.55401 20.84 5.7632L33.3409 17.1281C33.4697 17.2452 33.5727 17.388 33.6431 17.5473C33.7136 17.7066 33.75 17.8788 33.75 18.053V32.4999C33.75 32.664 33.7177 32.8266 33.6548 32.9783C33.592 33.1299 33.4999 33.2677 33.3838 33.3838C33.2677 33.4999 33.1299 33.5919 32.9782 33.6548C32.8266 33.7176 32.664 33.7499 32.4998 33.7499L24.9989 33.7489C24.6674 33.7488 24.3495 33.6171 24.1151 33.3827C23.8808 33.1483 23.7491 32.8304 23.7491 32.4989V32.4989Z'
                stroke-width='2' stroke-linecap='round' stroke-linejoin='round'/>
        </symbol>
        <symbol viewBox='0 0 25 20' id='ico_hamburger' fill='none'>
            <rect width="25" height="2.5" fill="white"/>
            <rect y="8.75" width="25" height="2.5" fill="white"/>
            <rect y="17.5" width="25" height="2.5" fill="white"/>
        </symbol>
        <symbol viewBox='0 0 41 40' id='ico_box' fill='none'>
            <path d='M20.8593 20L20.6934 36.0641' stroke-width='2' stroke-linecap='round' stroke-linejoin='round'/>
            <path
                d='M35.0684 27.3957V12.6043C35.0684 12.383 35.0096 12.1656 34.898 11.9744C34.7865 11.7832 34.6261 11.625 34.4334 11.5161L21.3084 4.09765C21.1208 3.99159 20.9089 3.93585 20.6934 3.93585C20.4778 3.93585 20.2659 3.99159 20.0783 4.09765L6.95329 11.5161C6.76058 11.625 6.60025 11.7832 6.4887 11.9744C6.37714 12.1656 6.31836 12.383 6.31836 12.6043V27.3957C6.31836 27.617 6.37714 27.8344 6.4887 28.0256C6.60025 28.2168 6.76058 28.375 6.95329 28.4839L20.0783 35.9024C20.2659 36.0084 20.4778 36.0641 20.6934 36.0641C20.9089 36.0641 21.1208 36.0084 21.3084 35.9024L34.4334 28.4839C34.6261 28.375 34.7865 28.2168 34.898 28.0256C35.0096 27.8344 35.0684 27.617 35.0684 27.3957V27.3957Z'
                stroke-width='2' stroke-linecap='round' stroke-linejoin='round'/>
            <path d='M34.8966 11.973L20.8588 20L6.49023 11.9713' stroke-width='2' stroke-linecap='round'
                  stroke-linejoin='round'/>
        </symbol>
        <symbol viewBox='0 0 36 36' id='ico_qa' fill='none'>
            <path
                d="M18 31.5C25.4558 31.5 31.5 25.4558 31.5 18C31.5 10.5442 25.4558 4.5 18 4.5C10.5442 4.5 4.5 10.5442 4.5 18C4.5 25.4558 10.5442 31.5 18 31.5Z"
                stroke-width="2" stroke-linecap="round" stroke-linejoin="round"/>
            <path
                d="M18 26.1562C18.466 26.1562 18.8438 25.7785 18.8438 25.3125C18.8438 24.8465 18.466 24.4688 18 24.4688C17.534 24.4688 17.1562 24.8465 17.1562 25.3125C17.1562 25.7785 17.534 26.1562 18 26.1562Z"
                fill="white"/>
            <path
                d="M18 21.375V20.25C18.89 20.25 19.76 19.9861 20.5001 19.4916C21.2401 18.9971 21.8169 18.2943 22.1575 17.4721C22.4981 16.6498 22.5872 15.745 22.4135 14.8721C22.2399 13.9992 21.8113 13.1974 21.182 12.568C20.5526 11.9387 19.7508 11.5101 18.8779 11.3365C18.005 11.1628 17.1002 11.2519 16.2779 11.5925C15.4557 11.9331 14.7529 12.5099 14.2584 13.2499C13.7639 13.99 13.5 14.86 13.5 15.75"
                stroke-width="2" stroke-linecap="round" stroke-linejoin="round"/>
        </symbol>
        <symbol viewBox='0 0 38 38' id='ico_file' fill='none'>
            <path d="M14.25 14.25H23.75" stroke-width="2" stroke-linecap="round" stroke-linejoin="round"/>
            <path d="M14.25 19H23.75" stroke-width="2" stroke-linecap="round" stroke-linejoin="round"/>
            <path d="M14.25 23.75H19" stroke-width="2" stroke-linecap="round" stroke-linejoin="round"/>
            <path
                d="M23.2581 32.0625H7.125C6.81006 32.0625 6.50801 31.9374 6.28531 31.7147C6.06261 31.492 5.9375 31.1899 5.9375 30.875V7.125C5.9375 6.81006 6.06261 6.50801 6.28531 6.28531C6.50801 6.06261 6.81006 5.9375 7.125 5.9375H30.875C31.1899 5.9375 31.492 6.06261 31.7147 6.28531C31.9374 6.50801 32.0625 6.81006 32.0625 7.125V23.2581C32.0625 23.4141 32.0318 23.5685 31.9721 23.7126C31.9124 23.8566 31.825 23.9875 31.7147 24.0978L24.0978 31.7147C23.9875 31.825 23.8566 31.9124 23.7126 31.9721C23.5685 32.0318 23.4141 32.0625 23.2581 32.0625V32.0625Z"
                stroke-width="2" stroke-linecap="round" stroke-linejoin="round"/>
            <path d="M31.9552 23.7488H23.75V31.9544" stroke-width="2" stroke-linecap="round" stroke-linejoin="round"/>
        </symbol>
        <symbol viewBox='0 0 38 38' id='ico_ball' fill='none'>
            <path
                d="M19 33.25C26.8701 33.25 33.25 26.8701 33.25 19C33.25 11.1299 26.8701 4.75 19 4.75C11.1299 4.75 4.75 11.1299 4.75 19C4.75 26.8701 11.1299 33.25 19 33.25Z"
                stroke-width="2" stroke-linecap="round" stroke-linejoin="round"/>
            <path
                d="M10.5429 30.47C12.6567 26.9682 15.6394 24.0721 19.2019 22.0624C22.7644 20.0528 26.7858 18.9978 30.8761 18.9998C31.6771 18.9998 32.4683 19.0388 33.2496 19.1169"
                stroke-width="2" stroke-linecap="round" stroke-linejoin="round"/>
            <path
                d="M27.9107 7.88074C25.6856 10.6157 22.8784 12.8197 19.6936 14.3324C16.5089 15.8451 13.0267 16.6282 9.50099 16.6248C7.9992 16.6255 6.50069 16.4845 5.02539 16.2037"
                stroke-width="2" stroke-linecap="round" stroke-linejoin="round"/>
            <path
                d="M12.7554 6.18768C16.3267 8.28314 19.2877 11.2762 21.3446 14.8698C23.4015 18.4634 24.4827 22.5325 24.4809 26.6731C24.4823 28.6132 24.2464 30.5462 23.7786 32.4291"
                stroke-width="2" stroke-linecap="round" stroke-linejoin="round"/>
        </symbol>
        <symbol viewBox="0 0 18 18" id="ico_edit" xmlns="http://www.w3.org/2000/svg">
            <path
                d="M16.6133 11.3075C16.3657 11.3075 16.165 11.5082 16.165 11.7558V15.7361C16.1641 16.4786 15.5626 17.0803 14.8201 17.081H2.24147C1.49898 17.0803 0.897462 16.4786 0.896587 15.7361V4.05406C0.897462 3.31175 1.49898 2.71005 2.24147 2.70918H6.22182C6.46943 2.70918 6.67011 2.5085 6.67011 2.26088C6.67011 2.01345 6.46943 1.81259 6.22182 1.81259H2.24147C1.00411 1.81399 0.00140092 2.8167 0 4.05406V15.7363C0.00140092 16.9737 1.00411 17.9764 2.24147 17.9778H14.8201C16.0575 17.9764 17.0602 16.9737 17.0616 15.7363V11.7558C17.0616 11.5082 16.8609 11.3075 16.6133 11.3075Z"/>
            <path
                d="M16.884 0.659118C16.0962 -0.128723 14.8189 -0.128723 14.0311 0.659118L6.03322 8.65695C5.97841 8.71176 5.93884 8.77971 5.91817 8.8543L4.86643 12.6513C4.82318 12.807 4.86713 12.9737 4.98131 13.088C5.09566 13.2022 5.26237 13.2462 5.41805 13.2031L9.21506 12.1512C9.28966 12.1305 9.3576 12.0909 9.41241 12.0361L17.4101 4.03813C18.1967 3.24976 18.1967 1.97353 17.4101 1.18516L16.884 0.659118ZM7.01001 8.94834L13.5556 2.40256L15.6666 4.51356L9.12085 11.0593L7.01001 8.94834ZM6.58834 9.79449L8.27487 11.4812L5.94199 12.1275L6.58834 9.79449ZM16.7762 3.40421L16.3007 3.87965L14.1895 1.76847L14.6652 1.29303C15.1028 0.855421 15.8123 0.855421 16.2499 1.29303L16.7762 1.81908C17.2131 2.25721 17.2131 2.96625 16.7762 3.40421Z"/>
        </symbol>
        <symbol viewBox="0 0 14 14" id="ico_delete" xmlns="http://www.w3.org/2000/svg">
            <g clip-path="url(#clip0)">
                <path
                    d="M8.93108 5.07227C8.74998 5.07227 8.60321 5.21904 8.60321 5.40013V11.5969C8.60321 11.7778 8.74998 11.9247 8.93108 11.9247C9.11217 11.9247 9.25895 11.7778 9.25895 11.5969V5.40013C9.25895 5.21904 9.11217 5.07227 8.93108 5.07227Z"/>
                <path
                    d="M5.06224 5.07227C4.88115 5.07227 4.73438 5.21904 4.73438 5.40013V11.5969C4.73438 11.7778 4.88115 11.9247 5.06224 11.9247C5.24334 11.9247 5.39011 11.7778 5.39011 11.5969V5.40013C5.39011 5.21904 5.24334 5.07227 5.06224 5.07227Z"/>
                <path
                    d="M2.2426 4.16793V12.2459C2.2426 12.7234 2.41767 13.1717 2.72351 13.4935C3.02794 13.8161 3.45161 13.9992 3.895 14H10.0984C10.5419 13.9992 10.9655 13.8161 11.2698 13.4935C11.5757 13.1717 11.7508 12.7234 11.7508 12.2459V4.16793C12.3587 4.00656 12.7527 3.41922 12.6713 2.79537C12.5899 2.17166 12.0585 1.70508 11.4294 1.70496H9.75077V1.29512C9.75269 0.950476 9.61642 0.619534 9.37244 0.376067C9.12846 0.132727 8.797 -0.00277453 8.45236 4.30791e-05H5.541C5.19635 -0.00277453 4.8649 0.132727 4.62092 0.376067C4.37694 0.619534 4.24067 0.950476 4.24259 1.29512V1.70496H2.56393C1.93484 1.70508 1.40346 2.17166 1.32201 2.79537C1.24068 3.41922 1.63463 4.00656 2.2426 4.16793ZM10.0984 13.3443H3.895C3.33442 13.3443 2.89833 12.8627 2.89833 12.2459V4.19675H11.095V12.2459C11.095 12.8627 10.6589 13.3443 10.0984 13.3443ZM4.89833 1.29512C4.89615 1.1244 4.96326 0.960081 5.08442 0.839564C5.20545 0.719047 5.37015 0.652833 5.541 0.655779H8.45236C8.62321 0.652833 8.78791 0.719047 8.90894 0.839564C9.0301 0.959953 9.09721 1.1244 9.09503 1.29512V1.70496H4.89833V1.29512ZM2.56393 2.36069H11.4294C11.7554 2.36069 12.0196 2.62491 12.0196 2.95085C12.0196 3.2768 11.7554 3.54102 11.4294 3.54102H2.56393C2.23799 3.54102 1.97377 3.2768 1.97377 2.95085C1.97377 2.62491 2.23799 2.36069 2.56393 2.36069Z"/>
                <path
                    d="M6.99666 5.07227C6.81557 5.07227 6.66879 5.21904 6.66879 5.40013V11.5969C6.66879 11.7778 6.81557 11.9247 6.99666 11.9247C7.17776 11.9247 7.32453 11.7778 7.32453 11.5969V5.40013C7.32453 5.21904 7.17776 5.07227 6.99666 5.07227Z"/>
            </g>
            <defs>
                <clipPath id="clip0">
                    <rect width="14" height="14" fill="white"/>
                </clipPath>
            </defs>
        </symbol>
        <symbol viewBox="0 0 12 12" id="ico_save" xmlns="http://www.w3.org/2000/svg">
            <path
                d="M3.89062 7.78125H8.10938C8.30353 7.78125 8.46094 7.62384 8.46094 7.42969C8.46094 7.23553 8.30353 7.07812 8.10938 7.07812H3.89062C3.69647 7.07812 3.53906 7.23553 3.53906 7.42969C3.53906 7.62384 3.69647 7.78125 3.89062 7.78125Z"/>
            <path
                d="M3.89062 9.1875H8.10938C8.30353 9.1875 8.46094 9.03009 8.46094 8.83594C8.46094 8.64178 8.30353 8.48438 8.10938 8.48438H3.89062C3.69647 8.48438 3.53906 8.64178 3.53906 8.83594C3.53906 9.03009 3.69647 9.1875 3.89062 9.1875Z"/>
            <path
                d="M11.897 1.97798L10.022 0.102984C9.95609 0.0370313 9.86667 0 9.77344 0H0.351562C0.157406 0 0 0.157406 0 0.351562V11.6484C0 11.8426 0.157406 12 0.351562 12C0.513563 12 11.5429 12 11.6484 12C11.8426 12 12 11.8426 12 11.6484V2.22656C12 2.1333 11.9629 2.04389 11.897 1.97798ZM2.83594 0.703125H7.75781V3.04688H2.83594V0.703125ZM9.16406 11.2969H2.83594V6.375H9.16406V11.2969ZM11.2969 11.2969H9.86719V6.02344C9.86719 5.82928 9.70978 5.67188 9.51562 5.67188H2.48438C2.29022 5.67188 2.13281 5.82928 2.13281 6.02344V11.2969H0.703125V0.703125H2.13281V3.39844C2.13281 3.59259 2.29022 3.75 2.48438 3.75H8.10938C8.30353 3.75 8.46094 3.59259 8.46094 3.39844V0.703125H9.62782L11.2969 2.37218V11.2969Z"/>
            <path
                d="M3.89062 10.5938H8.10938C8.30353 10.5938 8.46094 10.4363 8.46094 10.2422C8.46094 10.048 8.30353 9.89062 8.10938 9.89062H3.89062C3.69647 9.89062 3.53906 10.048 3.53906 10.2422C3.53906 10.4363 3.69647 10.5938 3.89062 10.5938Z"/>
        </symbol>

        <symbol viewBox="0 0 20 20" id="ico_star" xmlns="http://www.w3.org/2000/svg">
            <path
                d="M19.9479 7.67189C19.8169 7.26691 19.4577 6.97928 19.0328 6.94098L13.2602 6.41683L10.9776 1.07413C10.8093 0.682578 10.426 0.429123 10.0001 0.429123C9.57422 0.429123 9.19091 0.682578 9.0226 1.07504L6.73998 6.41683L0.966514 6.94098C0.542309 6.98019 0.184023 7.26691 0.0523365 7.67189C-0.0793503 8.07687 0.0422654 8.52107 0.363166 8.80107L4.72653 12.6278L3.43987 18.2955C3.34573 18.7122 3.50747 19.143 3.85325 19.3929C4.0391 19.5272 4.25655 19.5956 4.47582 19.5956C4.66488 19.5956 4.85242 19.5446 5.02073 19.4439L10.0001 16.4679L14.9776 19.4439C15.3419 19.663 15.801 19.643 16.146 19.3929C16.492 19.1422 16.6536 18.7113 16.5594 18.2955L15.2728 12.6278L19.6361 8.80184C19.957 8.52107 20.0796 8.07763 19.9479 7.67189Z"/>
        </symbol>
        <symbol viewBox="0 0 14 12" id="ico_tick" xmlns="http://www.w3.org/2000/svg">
            <path
                d="M13.795 1.0648C13.5216 0.791418 13.0784 0.791418 12.805 1.0648L4.4186 9.45132L1.19499 6.22771C0.921635 5.95433 0.478447 5.95436 0.205037 6.22771C-0.0683457 6.50107 -0.0683457 6.94425 0.205037 7.21764L3.92362 10.9362C4.1969 11.2095 4.64041 11.2093 4.91358 10.9362L13.795 2.05475C14.0684 1.7814 14.0683 1.33818 13.795 1.0648Z"/>
        </symbol>
        <symbol viewBox="0 0 14 14" id="ico_cancel" xmlns="http://www.w3.org/2000/svg">
            <path
                d="M0.907337 14.0125C0.675146 14.0125 0.44279 13.9236 0.266072 13.7468C-0.0886908 13.3922 -0.0886908 12.8188 0.266072 12.4642L12.4514 0.278714C12.806 -0.0758834 13.3794 -0.0758834 13.734 0.278714C14.0887 0.633311 14.0887 1.20665 13.734 1.56124L1.5486 13.7468C1.37072 13.9245 1.13953 14.0125 0.907337 14.0125Z"/>
            <path
                d="M13.0927 14.0125C12.8605 14.0125 12.6283 13.9236 12.4514 13.7468L0.266072 1.56124C-0.0886908 1.20665 -0.0886908 0.633311 0.266072 0.278714C0.62067 -0.0758834 1.19384 -0.0758834 1.5486 0.278714L13.734 12.4642C14.0887 12.8188 14.0887 13.3922 13.734 13.7468C13.5571 13.9245 13.3249 14.0125 13.0927 14.0125Z"/>
        </symbol>
        <symbol viewBox="0 0 6 10" id="ico_arrow" xmlns="http://www.w3.org/2000/svg">
            <path d="M1 9L5 5L1 1" stroke-width="1.5" stroke-linecap="round" stroke-linejoin="round"/>
        </symbol>
        <symbol viewBox="0 0 86 86" id='ico_success' xmlns="http://www.w3.org/2000/svg">
            <path
                d="M39.9758 58.4494C39.0035 58.4494 38.139 58.0172 37.5989 57.3691L21.2848 39.6504C20.0963 38.354 20.2045 36.3012 21.5009 35.1127C22.7973 33.9243 24.8501 34.0324 26.0386 35.3288L40.0838 50.5625L78.9783 11.776C80.2747 10.4796 82.3276 10.4796 83.5161 11.776C84.8125 13.0724 84.8125 15.1253 83.5161 16.3137L42.2448 57.4771C41.7044 58.1254 40.8402 58.4494 39.9758 58.4494Z"/>
            <path
                d="M43.0001 86C19.3391 86 0 66.6609 0 43.0001C0 19.3393 19.3391 0 43.0001 0C44.8369 0 46.2412 1.40456 46.2412 3.24111C46.2412 5.07767 44.8367 6.48222 43.0001 6.48222C22.9045 6.48222 6.48243 22.9043 6.48243 42.9999C6.48243 63.0955 22.9045 79.5176 43.0001 79.5176C63.0957 79.5176 79.5178 63.0955 79.5178 42.9999C79.5178 41.1631 80.9223 39.7588 82.7589 39.7588C84.5955 39.7588 86 41.1633 86 42.9999C86 66.6609 66.6609 86 43.0001 86Z"/>
        </symbol>
        <symbol viewBox="0 0 14 14" id='ico_note' xmlns="http://www.w3.org/2000/svg">
            <path
                d="M12.2288 1.85541H11.0481V0.674706C11.0481 0.303597 10.7445 0 10.3736 0H1.77102C1.39994 0 1.09634 0.303597 1.09634 0.674706V11.4699C1.09634 11.8409 1.39994 12.1446 1.77105 12.1446H2.95178V13.3253C2.95178 13.6964 3.25524 14 3.62648 14H9.36125C9.73217 14 10.2571 13.7919 10.5271 13.5377L12.4119 11.7636C12.6823 11.5094 12.9032 10.9976 12.9032 10.6265L12.9036 2.53017C12.9035 2.15903 12.5999 1.85541 12.2288 1.85541ZM2.95172 2.53014V11.6385H1.77102C1.67961 11.6385 1.60237 11.5613 1.60237 11.4699V0.674706C1.60237 0.583296 1.67961 0.50605 1.77102 0.50605H10.3736C10.4648 0.50605 10.5423 0.583296 10.5423 0.674706V1.85543H3.62643C3.25518 1.85543 2.95172 2.15903 2.95172 2.53014ZM12.0651 11.3951L10.1803 13.1691C10.1417 13.2054 10.0914 13.241 10.0359 13.2748V11.7229C10.0359 11.607 10.0826 11.5027 10.1597 11.4252C10.2375 11.3481 10.3417 11.3012 10.4576 11.3012H12.1452C12.119 11.3368 12.0922 11.3695 12.0651 11.3951ZM12.3972 10.6265C12.3972 10.6766 12.388 10.7346 12.3742 10.7951H10.4576C9.94567 10.7961 9.53089 11.2109 9.52985 11.7228V13.4735C9.46964 13.4857 9.41162 13.4939 9.3612 13.4939H3.62643V13.4939C3.53483 13.4939 3.45777 13.4167 3.45777 13.3253V2.53011C3.45777 2.4387 3.53486 2.36146 3.62643 2.36146H12.2288C12.3202 2.36146 12.3975 2.4387 12.3975 2.53011L12.3972 10.6265Z"/>
            <path
                d="M10.3737 4.21729H5.48214C5.3423 4.21729 5.22913 4.33046 5.22913 4.4703C5.22913 4.61013 5.34233 4.72331 5.48214 4.72331H10.3737C10.5134 4.72331 10.6267 4.61013 10.6267 4.4703C10.6267 4.33046 10.5134 4.21729 10.3737 4.21729Z"/>
            <path
                d="M10.3737 7.59033H5.48214C5.3423 7.59033 5.22913 7.70351 5.22913 7.84334C5.22913 7.98318 5.34233 8.09635 5.48214 8.09635H10.3737C10.5134 8.09635 10.6267 7.98318 10.6267 7.84334C10.6267 7.70348 10.5134 7.59033 10.3737 7.59033Z"/>
            <path
                d="M8.18094 9.2771H5.48217C5.34233 9.2771 5.22916 9.39027 5.22916 9.53011C5.22916 9.66995 5.34233 9.78312 5.48217 9.78312H8.18094C8.32061 9.78312 8.43378 9.66995 8.43378 9.53011C8.43378 9.39027 8.32061 9.2771 8.18094 9.2771Z"/>
            <path
                d="M10.3737 5.90381H5.48214C5.3423 5.90381 5.22913 6.01698 5.22913 6.15682C5.22913 6.29666 5.34233 6.40983 5.48214 6.40983H10.3737C10.5134 6.40983 10.6267 6.29666 10.6267 6.15682C10.6267 6.01698 10.5134 5.90381 10.3737 5.90381Z"/>
        </symbol>
        <symbol viewBox="0 0 81 62" id='ico_upload' xmlns="http://www.w3.org/2000/svg">
            <path
                d="M68.202 21.4066C64.4287 6.67729 49.1841 -2.26579 34.1522 1.43162C22.405 4.32115 13.8753 14.2696 12.9964 26.1059C4.65548 27.4538 -0.991197 35.1718 0.384319 43.3448C1.60709 50.6108 8.03233 55.9319 15.5475 55.9027H28.303V50.9032H15.5475C9.91184 50.9032 5.34316 46.4265 5.34316 40.9043C5.34316 35.3821 9.91184 30.9054 15.5475 30.9054C16.9565 30.9054 18.0986 29.7863 18.0986 28.4057C18.0859 15.9806 28.3551 5.898 41.0355 5.88566C52.0122 5.87488 61.4613 13.4787 63.5846 24.0312C63.7942 25.0848 64.6669 25.8897 65.753 26.031C72.7273 27.0041 77.5759 33.333 76.5828 40.1667C75.6911 46.3033 70.344 50.8723 64.0182 50.9032H53.8139V55.9027H64.0182C73.8808 55.8735 81.8516 48.0156 81.8217 38.3516C81.7968 30.3072 76.1774 23.3156 68.202 21.4066Z"
                fill="#718096"/>
            <path
                d="M39.2471 31.6303L29.0427 41.6292L32.6398 45.1538L38.5073 39.4294V63.4017H43.6095V39.4294L49.4515 45.1538L53.0485 41.6292L42.8441 31.6303C41.849 30.661 40.2422 30.661 39.2471 31.6303Z"
                fill="#718096"/>
        </symbol>
        <symbol viewBox="0 0 11 19" id='ico_link_profile' fill="none" xmlns="http://www.w3.org/2000/svg">
                <path d="M1 1L9.5 9.5L1 18" stroke="#45AEA7" stroke-width="2"/>
        </symbol>
        <symbol viewBox="0 0 14 14" id="icon_calendar" xmlns="http://www.w3.org/2000/svg">
            <path d="M12.4688 1.75H11.375V1.3125C11.375 1.08044 11.2828 0.857876 11.1187 0.693782C10.9546 0.529687 10.7321 0.4375 10.5 0.4375C10.2679 0.4375 10.0454 0.529687 9.88128 0.693782C9.71719 0.857876 9.625 1.08044 9.625 1.3125V1.75H7.875V1.3125C7.875 1.08044 7.78281 0.857876 7.61872 0.693782C7.45462 0.529687 7.23206 0.4375 7 0.4375C6.76794 0.4375 6.54538 0.529687 6.38128 0.693782C6.21719 0.857876 6.125 1.08044 6.125 1.3125V1.75H4.375V1.3125C4.375 1.08044 4.28281 0.857876 4.11872 0.693782C3.95462 0.529687 3.73206 0.4375 3.5 0.4375C3.26794 0.4375 3.04538 0.529687 2.88128 0.693782C2.71719 0.857876 2.625 1.08044 2.625 1.3125V1.75H1.53125C1.24117 1.75 0.96297 1.86523 0.757852 2.07035C0.552734 2.27547 0.4375 2.55367 0.4375 2.84375V11.5938C0.4375 11.8838 0.552734 12.162 0.757852 12.3671C0.96297 12.5723 1.24117 12.6875 1.53125 12.6875H7.65625C7.71427 12.6875 7.76991 12.6645 7.81093 12.6234C7.85195 12.5824 7.875 12.5268 7.875 12.4688C7.875 12.4107 7.85195 12.3551 7.81093 12.3141C7.76991 12.273 7.71427 12.25 7.65625 12.25H1.53125C1.35736 12.2495 1.19074 12.1802 1.06778 12.0572C0.944827 11.9343 0.875519 11.7676 0.875 11.5938V4.8125H13.125V8.53125C13.125 8.58927 13.148 8.64491 13.1891 8.68593C13.2301 8.72695 13.2857 8.75 13.3438 8.75C13.4018 8.75 13.4574 8.72695 13.4984 8.68593C13.5395 8.64491 13.5625 8.58927 13.5625 8.53125V2.84375C13.5625 2.55367 13.4473 2.27547 13.2421 2.07035C13.037 1.86523 12.7588 1.75 12.4688 1.75ZM10.0625 1.3125C10.0625 1.19647 10.1086 1.08519 10.1906 1.00314C10.2727 0.921094 10.384 0.875 10.5 0.875C10.616 0.875 10.7273 0.921094 10.8094 1.00314C10.8914 1.08519 10.9375 1.19647 10.9375 1.3125V2.625C10.9375 2.74103 10.8914 2.85231 10.8094 2.93436C10.7273 3.01641 10.616 3.0625 10.5 3.0625C10.384 3.0625 10.2727 3.01641 10.1906 2.93436C10.1086 2.85231 10.0625 2.74103 10.0625 2.625V1.3125ZM6.5625 1.3125C6.5625 1.19647 6.60859 1.08519 6.69064 1.00314C6.77269 0.921094 6.88397 0.875 7 0.875C7.11603 0.875 7.22731 0.921094 7.30936 1.00314C7.39141 1.08519 7.4375 1.19647 7.4375 1.3125V2.625C7.4375 2.74103 7.39141 2.85231 7.30936 2.93436C7.22731 3.01641 7.11603 3.0625 7 3.0625C6.88397 3.0625 6.77269 3.01641 6.69064 2.93436C6.60859 2.85231 6.5625 2.74103 6.5625 2.625V1.3125ZM3.0625 1.3125C3.0625 1.19647 3.10859 1.08519 3.19064 1.00314C3.27269 0.921094 3.38397 0.875 3.5 0.875C3.61603 0.875 3.72731 0.921094 3.80936 1.00314C3.89141 1.08519 3.9375 1.19647 3.9375 1.3125V2.625C3.9375 2.74103 3.89141 2.85231 3.80936 2.93436C3.72731 3.01641 3.61603 3.0625 3.5 3.0625C3.38397 3.0625 3.27269 3.01641 3.19064 2.93436C3.10859 2.85231 3.0625 2.74103 3.0625 2.625V1.3125ZM13.125 4.375H0.875V2.84375C0.875519 2.66986 0.944827 2.50324 1.06778 2.38028C1.19074 2.25733 1.35736 2.18802 1.53125 2.1875H2.625V2.625C2.625 2.85706 2.71719 3.07962 2.88128 3.24372C3.04538 3.40781 3.26794 3.5 3.5 3.5C3.73206 3.5 3.95462 3.40781 4.11872 3.24372C4.28281 3.07962 4.375 2.85706 4.375 2.625V2.1875H6.125V2.625C6.125 2.85706 6.21719 3.07962 6.38128 3.24372C6.54538 3.40781 6.76794 3.5 7 3.5C7.23206 3.5 7.45462 3.40781 7.61872 3.24372C7.78281 3.07962 7.875 2.85706 7.875 2.625V2.1875H9.625V2.625C9.625 2.85706 9.71719 3.07962 9.88128 3.24372C10.0454 3.40781 10.2679 3.5 10.5 3.5C10.7321 3.5 10.9546 3.40781 11.1187 3.24372C11.2828 3.07962 11.375 2.85706 11.375 2.625V2.1875H12.4688C12.6426 2.18802 12.8093 2.25733 12.9322 2.38028C13.0552 2.50324 13.1245 2.66986 13.125 2.84375V4.375Z"/>
            <path d="M6.5625 6.34375C6.5625 6.22772 6.51641 6.11644 6.43436 6.03439C6.35231 5.95234 6.24103 5.90625 6.125 5.90625H5.25C5.13397 5.90625 5.02269 5.95234 4.94064 6.03439C4.85859 6.11644 4.8125 6.22772 4.8125 6.34375V7C4.8125 7.11603 4.85859 7.22731 4.94064 7.30936C5.02269 7.39141 5.13397 7.4375 5.25 7.4375H6.125C6.24103 7.4375 6.35231 7.39141 6.43436 7.30936C6.51641 7.22731 6.5625 7.11603 6.5625 7V6.34375ZM5.25 7V6.34375H6.125V7H5.25Z" />
            <path d="M3.9375 6.34375C3.9375 6.22772 3.89141 6.11644 3.80936 6.03439C3.72731 5.95234 3.61603 5.90625 3.5 5.90625H2.625C2.50897 5.90625 2.39769 5.95234 2.31564 6.03439C2.23359 6.11644 2.1875 6.22772 2.1875 6.34375V7C2.1875 7.11603 2.23359 7.22731 2.31564 7.30936C2.39769 7.39141 2.50897 7.4375 2.625 7.4375H3.5C3.61603 7.4375 3.72731 7.39141 3.80936 7.30936C3.89141 7.22731 3.9375 7.11603 3.9375 7V6.34375ZM2.625 7V6.34375H3.5V7H2.625Z" />
            <path d="M11.375 7.4375C11.491 7.4375 11.6023 7.39141 11.6844 7.30936C11.7664 7.22731 11.8125 7.11603 11.8125 7V6.34375C11.8125 6.22772 11.7664 6.11644 11.6844 6.03439C11.6023 5.95234 11.491 5.90625 11.375 5.90625H10.5C10.384 5.90625 10.2727 5.95234 10.1906 6.03439C10.1086 6.11644 10.0625 6.22772 10.0625 6.34375V7C10.0625 7.11603 10.1086 7.22731 10.1906 7.30936C10.2727 7.39141 10.384 7.4375 10.5 7.4375H11.375ZM10.5 6.34375H11.375V7H10.5V6.34375Z"/>
            <path d="M6.5625 8.3125C6.5625 8.19647 6.51641 8.08519 6.43436 8.00314C6.35231 7.92109 6.24103 7.875 6.125 7.875H5.25C5.13397 7.875 5.02269 7.92109 4.94064 8.00314C4.85859 8.08519 4.8125 8.19647 4.8125 8.3125V8.96875C4.8125 9.08478 4.85859 9.19606 4.94064 9.27811C5.02269 9.36016 5.13397 9.40625 5.25 9.40625H6.125C6.24103 9.40625 6.35231 9.36016 6.43436 9.27811C6.51641 9.19606 6.5625 9.08478 6.5625 8.96875V8.3125ZM5.25 8.96875V8.3125H6.125V8.96875H5.25Z"/>
            <path d="M3.9375 8.3125C3.9375 8.19647 3.89141 8.08519 3.80936 8.00314C3.72731 7.92109 3.61603 7.875 3.5 7.875H2.625C2.50897 7.875 2.39769 7.92109 2.31564 8.00314C2.23359 8.08519 2.1875 8.19647 2.1875 8.3125V8.96875C2.1875 9.08478 2.23359 9.19606 2.31564 9.27811C2.39769 9.36016 2.50897 9.40625 2.625 9.40625H3.5C3.61603 9.40625 3.72731 9.36016 3.80936 9.27811C3.89141 9.19606 3.9375 9.08478 3.9375 8.96875V8.3125ZM2.625 8.96875V8.3125H3.5V8.96875H2.625Z"/>
            <path d="M6.125 9.84375H5.25C5.13397 9.84375 5.02269 9.88984 4.94064 9.97189C4.85859 10.0539 4.8125 10.1652 4.8125 10.2812V10.9375C4.8125 11.0535 4.85859 11.1648 4.94064 11.2469C5.02269 11.3289 5.13397 11.375 5.25 11.375H6.125C6.24103 11.375 6.35231 11.3289 6.43436 11.2469C6.51641 11.1648 6.5625 11.0535 6.5625 10.9375V10.2812C6.5625 10.1652 6.51641 10.0539 6.43436 9.97189C6.35231 9.88984 6.24103 9.84375 6.125 9.84375ZM5.25 10.9375V10.2812H6.125V10.9375H5.25Z"/>
            <path d="M7.875 7.4375H8.75C8.86603 7.4375 8.97731 7.39141 9.05936 7.30936C9.14141 7.22731 9.1875 7.11603 9.1875 7V6.34375C9.1875 6.22772 9.14141 6.11644 9.05936 6.03439C8.97731 5.95234 8.86603 5.90625 8.75 5.90625H7.875C7.75897 5.90625 7.64769 5.95234 7.56564 6.03439C7.48359 6.11644 7.4375 6.22772 7.4375 6.34375V7C7.4375 7.11603 7.48359 7.22731 7.56564 7.30936C7.64769 7.39141 7.75897 7.4375 7.875 7.4375ZM7.875 6.34375H8.75V7H7.875V6.34375Z"/>
            <path d="M7.4375 8.96875C7.4375 9.08478 7.48359 9.19606 7.56564 9.27811C7.64769 9.36016 7.75897 9.40625 7.875 9.40625C7.93302 9.40625 7.98866 9.3832 8.02968 9.34218C8.0707 9.30116 8.09375 9.24552 8.09375 9.1875C8.09375 9.12948 8.0707 9.07384 8.02968 9.03282C7.98866 8.9918 7.93302 8.96875 7.875 8.96875V8.3125H8.75C8.80802 8.3125 8.86366 8.28945 8.90468 8.24843C8.9457 8.20741 8.96875 8.15177 8.96875 8.09375C8.96875 8.03573 8.9457 7.98009 8.90468 7.93907C8.86366 7.89805 8.80802 7.875 8.75 7.875H7.875C7.75897 7.875 7.64769 7.92109 7.56564 8.00314C7.48359 8.08519 7.4375 8.19647 7.4375 8.3125V8.96875Z"/>
            <path d="M3.5 9.84375H2.625C2.50897 9.84375 2.39769 9.88984 2.31564 9.97189C2.23359 10.0539 2.1875 10.1652 2.1875 10.2812V10.9375C2.1875 11.0535 2.23359 11.1648 2.31564 11.2469C2.39769 11.3289 2.50897 11.375 2.625 11.375H3.5C3.61603 11.375 3.72731 11.3289 3.80936 11.2469C3.89141 11.1648 3.9375 11.0535 3.9375 10.9375V10.2812C3.9375 10.1652 3.89141 10.0539 3.80936 9.97189C3.72731 9.88984 3.61603 9.84375 3.5 9.84375ZM2.625 10.9375V10.2812H3.5V10.9375H2.625Z"/>
            <path d="M10.7187 7.875C10.1563 7.875 9.6065 8.04178 9.13885 8.35426C8.6712 8.66673 8.30671 9.11087 8.09147 9.63049C7.87623 10.1501 7.81992 10.7219 7.92964 11.2735C8.03937 11.8252 8.31021 12.3319 8.70792 12.7296C9.10562 13.1273 9.61233 13.3981 10.164 13.5079C10.7156 13.6176 11.2874 13.5613 11.807 13.346C12.3266 13.1308 12.7708 12.7663 13.0832 12.2986C13.3957 11.831 13.5625 11.2812 13.5625 10.7187C13.5616 9.96481 13.2617 9.24199 12.7286 8.70887C12.1955 8.17576 11.4727 7.87587 10.7187 7.875ZM10.7187 13.125C10.2428 13.125 9.77762 12.9839 9.38191 12.7195C8.9862 12.4551 8.67779 12.0793 8.49567 11.6396C8.31354 11.1999 8.26589 10.7161 8.35874 10.2493C8.45158 9.78255 8.68075 9.35379 9.01727 9.01727C9.35379 8.68075 9.78255 8.45158 10.2493 8.35873C10.7161 8.26589 11.1999 8.31354 11.6396 8.49566C12.0793 8.67779 12.4551 8.9862 12.7195 9.38191C12.9839 9.77761 13.125 10.2428 13.125 10.7187C13.1242 11.3567 12.8705 11.9683 12.4194 12.4194C11.9683 12.8705 11.3567 13.1242 10.7187 13.125Z"/>
            <path d="M11.9828 9.80158L10.2813 11.503L9.50805 10.7295C9.46679 10.6897 9.41153 10.6676 9.35418 10.6681C9.29682 10.6686 9.24196 10.6916 9.2014 10.7322C9.16084 10.7727 9.13784 10.8276 9.13734 10.885C9.13684 10.9423 9.15889 10.9976 9.19873 11.0388L10.1267 11.967C10.1677 12.008 10.2233 12.031 10.2813 12.031C10.3393 12.031 10.395 12.008 10.436 11.967L12.2921 10.1109C12.3319 10.0696 12.354 10.0144 12.3535 9.95702C12.353 9.89967 12.33 9.8448 12.2894 9.80424C12.2489 9.76369 12.194 9.74068 12.1366 9.74018C12.0793 9.73968 12.024 9.76173 11.9828 9.80158Z"/>
        </symbol>
        <symbol viewBox="0 0 14 14" id="icon_user_pro" xmlns="http://www.w3.org/2000/svg">
            <path d="M7 0C3.1402 0 0 3.1402 0 7C0 8.6905 0.602467 10.2429 1.60393 11.4539C1.6065 11.4574 1.60673 11.4618 1.60953 11.4651C2.33263 12.337 3.24077 13.0055 4.25273 13.4374C4.2644 13.4423 4.27583 13.4477 4.2875 13.4526C4.3694 13.4871 4.45223 13.5191 4.5353 13.5504C4.56797 13.5627 4.60063 13.5753 4.63377 13.5872C4.7054 13.6129 4.7775 13.6372 4.85007 13.6605C4.8965 13.6754 4.94293 13.6901 4.98983 13.7041C5.054 13.7233 5.1184 13.7417 5.18327 13.7592C5.2402 13.7746 5.2976 13.7888 5.355 13.8026C5.4131 13.8166 5.47143 13.8306 5.53 13.843C5.59533 13.857 5.66137 13.8693 5.72763 13.8815C5.78083 13.8913 5.8338 13.9015 5.88747 13.9102C5.96097 13.9221 6.03493 13.9314 6.10913 13.941C6.15697 13.947 6.20457 13.954 6.25263 13.9592C6.33663 13.968 6.42133 13.9743 6.50627 13.9802C6.5457 13.983 6.5849 13.9872 6.62457 13.9893C6.74847 13.9963 6.87377 14 7 14C7.12623 14 7.25153 13.9963 7.3759 13.9897C7.41557 13.9876 7.45477 13.9834 7.4942 13.9806C7.57913 13.9746 7.66383 13.9685 7.74783 13.9596C7.7959 13.9545 7.8435 13.9475 7.89133 13.9414C7.96553 13.9319 8.0395 13.9225 8.113 13.9106C8.16643 13.902 8.21963 13.8917 8.27283 13.8819C8.33887 13.8698 8.4049 13.8574 8.47047 13.8434C8.52903 13.8308 8.58713 13.8171 8.64547 13.8031C8.70287 13.7891 8.76027 13.7748 8.8172 13.7597C8.88207 13.7424 8.94647 13.7237 9.01063 13.7046C9.05753 13.6906 9.10397 13.6759 9.1504 13.661C9.22297 13.6376 9.29507 13.6134 9.3667 13.5877C9.3996 13.5758 9.43227 13.5632 9.46517 13.5508C9.54847 13.5196 9.63107 13.4874 9.71297 13.4531C9.72463 13.4482 9.73607 13.4428 9.74773 13.4379C10.7595 13.006 11.6678 12.3375 12.3909 11.4655C12.3937 11.4623 12.394 11.4576 12.3965 11.4543C13.3975 10.2429 14 8.6905 14 7C14 3.1402 10.8598 0 7 0ZM9.83663 12.8847C9.83313 12.8863 9.82987 12.8882 9.82637 12.8898C9.74307 12.9299 9.65837 12.9677 9.57297 13.0046C9.5536 13.0128 9.53447 13.0212 9.5151 13.0293C9.44043 13.0606 9.36483 13.0902 9.28877 13.1187C9.25703 13.1306 9.2253 13.1423 9.19333 13.1535C9.1259 13.1775 9.05823 13.2006 8.98987 13.2225C8.9474 13.2361 8.9047 13.2489 8.862 13.2615C8.80133 13.2797 8.74043 13.2972 8.67883 13.3135C8.62703 13.3273 8.57477 13.3399 8.5225 13.3523C8.46767 13.3653 8.41307 13.3786 8.35777 13.3903C8.29733 13.4031 8.23643 13.4141 8.17577 13.4251C8.12653 13.4342 8.07753 13.4437 8.02783 13.4517C7.95947 13.4624 7.8904 13.471 7.82157 13.4797C7.77793 13.4853 7.73453 13.4918 7.69043 13.4965C7.6118 13.5049 7.53247 13.5102 7.45337 13.5158C7.41813 13.5182 7.38313 13.5221 7.34743 13.524C7.23193 13.5301 7.1162 13.5333 7 13.5333C6.8838 13.5333 6.76807 13.5301 6.6528 13.524C6.61733 13.5221 6.58233 13.5184 6.54687 13.5158C6.46753 13.5105 6.38843 13.5049 6.3098 13.4965C6.2657 13.4918 6.2223 13.4853 6.17867 13.4797C6.10983 13.471 6.04077 13.4624 5.9724 13.4517C5.9227 13.4437 5.8737 13.4342 5.82447 13.4251C5.76357 13.4141 5.70267 13.4029 5.64247 13.3903C5.58717 13.3786 5.53233 13.3653 5.47773 13.3523C5.42547 13.3397 5.3732 13.3273 5.3214 13.3135C5.26003 13.2972 5.1989 13.2795 5.13823 13.2615C5.09553 13.2489 5.05283 13.2361 5.01037 13.2225C4.942 13.2006 4.8741 13.1775 4.8069 13.1535C4.77493 13.142 4.7432 13.1304 4.71147 13.1187C4.6354 13.0902 4.5598 13.0606 4.48513 13.0293C4.46577 13.0214 4.44687 13.013 4.4275 13.0048C4.3421 12.9682 4.2574 12.9302 4.17387 12.89C4.17037 12.8884 4.1671 12.8868 4.1636 12.8849C3.3495 12.491 2.63037 11.932 2.0468 11.253C2.49783 9.5921 3.77463 8.25323 5.4173 7.72053C5.44973 7.74037 5.48357 7.7581 5.51693 7.77677C5.53653 7.78773 5.5559 7.7994 5.57573 7.8099C5.64527 7.84677 5.71573 7.8813 5.78783 7.91233C5.84313 7.9366 5.9003 7.95713 5.95723 7.97813C5.96843 7.9821 5.97963 7.98653 5.99083 7.9905C6.30723 8.1025 6.6458 8.16667 7 8.16667C7.3542 8.16667 7.69277 8.1025 8.00893 7.9905C8.02013 7.98653 8.03133 7.9821 8.04253 7.97813C8.09947 7.95713 8.15663 7.9366 8.21193 7.91233C8.28403 7.8813 8.3545 7.84677 8.42403 7.8099C8.44387 7.79917 8.46323 7.78773 8.48283 7.77677C8.5162 7.7581 8.55027 7.74037 8.58293 7.7203C10.2256 8.25323 11.5022 9.5921 11.9534 11.2527C11.3699 11.9315 10.6507 12.4906 9.83663 12.8847ZM4.43333 5.13333C4.43333 3.71817 5.58483 2.56667 7 2.56667C8.41517 2.56667 9.56667 3.71817 9.56667 5.13333C9.56667 6.03353 9.09977 6.8257 8.39627 7.28397C8.30433 7.3437 8.20867 7.39713 8.11043 7.4438C8.09877 7.4494 8.08733 7.45523 8.07567 7.4606C7.39993 7.7679 6.60007 7.7679 5.92433 7.4606C5.91267 7.45523 5.901 7.4494 5.88957 7.4438C5.7911 7.39713 5.69567 7.3437 5.60373 7.28397C4.90023 6.8257 4.43333 6.03353 4.43333 5.13333ZM12.3034 10.8087C11.7745 9.24677 10.5677 7.98443 9.0258 7.38477C9.6425 6.8292 10.0333 6.027 10.0333 5.13333C10.0333 3.4608 8.67253 2.1 7 2.1C5.32747 2.1 3.96667 3.4608 3.96667 5.13333C3.96667 6.027 4.3575 6.8292 4.97443 7.38477C3.43257 7.98467 2.22577 9.24677 1.6968 10.8087C0.923767 9.7356 0.466667 8.42053 0.466667 7C0.466667 3.39757 3.39757 0.466667 7 0.466667C10.6024 0.466667 13.5333 3.39757 13.5333 7C13.5333 8.42053 13.0762 9.7356 12.3034 10.8087Z" fill="#718096"/>
        </symbol>
        <symbol viewBox="0 0 14 14" id="icon_money_pro"  xmlns="http://www.w3.org/2000/svg">
            <path d="M11.5528 7.39948C11.4403 7.39948 11.3491 7.49069 11.3491 7.60321C11.3491 7.74586 11.233 7.86191 11.0904 7.86191C10.9477 7.86191 10.8317 7.74586 10.8317 7.60321C10.8317 7.49067 10.7405 7.39948 10.6279 7.39948C10.5154 7.39948 10.4242 7.49069 10.4242 7.60321C10.4242 7.97055 10.7231 8.26939 11.0904 8.26939C11.4577 8.26939 11.7565 7.97052 11.7565 7.60321C11.7565 7.49064 11.6653 7.39948 11.5528 7.39948Z"/>
            <path d="M13.4653 7.43343L12.8918 7.24974C12.8184 7.22619 12.7605 7.16757 12.737 7.09289C12.6161 6.70863 12.4337 6.34788 12.1949 6.02063C12.086 5.87147 11.965 5.72904 11.8328 5.59344C11.9174 5.22231 11.9634 4.80228 11.9574 4.4394C11.9489 3.92028 11.8451 3.61581 11.6403 3.50851C11.5299 3.45065 11.1941 3.27488 9.37669 4.10684C9.33365 4.12653 9.29346 4.15079 9.25624 4.17857C9.13371 4.14565 9.00848 4.11518 8.88248 4.08784C8.8673 4.08453 8.85166 4.08161 8.83638 4.07838C8.98365 3.75665 9.06965 3.40723 9.08581 3.04651C9.09084 2.93407 9.00381 2.83886 8.89137 2.83386C8.77923 2.82828 8.68372 2.91583 8.67871 3.02827C8.65216 3.62138 8.40613 4.17944 7.98596 4.59963C7.73492 4.85068 7.44097 5.03303 7.1277 5.14788C6.5844 5.07164 6.03102 5.07164 5.48773 5.14788C5.17442 5.03303 4.8805 4.85068 4.62946 4.59963C4.18119 4.15136 3.9343 3.55535 3.9343 2.92138C3.9343 2.28739 4.18119 1.69141 4.62946 1.24313C5.07773 0.794833 5.67377 0.547946 6.30771 0.547946C6.94165 0.547946 7.53769 0.794833 7.98596 1.24313C8.1661 1.42327 8.31496 1.62884 8.42841 1.85407C8.47902 1.95459 8.60155 1.99506 8.70204 1.94442C8.80256 1.89383 8.843 1.77131 8.79238 1.67082C8.65941 1.4067 8.48504 1.16589 8.27414 0.954958C7.74889 0.429711 7.05053 0.140442 6.30774 0.140442C5.56495 0.140442 4.86659 0.429711 4.34134 0.954958C3.81609 1.48023 3.52682 2.17856 3.52682 2.92136C3.52682 3.66415 3.81609 4.36251 4.34134 4.88775C4.49285 5.03927 4.65768 5.16956 4.83202 5.27872C4.83208 5.27872 4.83213 5.27869 4.83219 5.27869C4.7055 5.31161 4.57978 5.34858 4.45545 5.39014C4.34872 5.42583 4.29114 5.54124 4.32682 5.64799C4.36248 5.75472 4.47795 5.8123 4.58464 5.77665C5.69579 5.40518 6.91969 5.40518 8.03083 5.77665C8.05227 5.78381 8.07404 5.7872 8.09545 5.7872C8.18068 5.7872 8.26014 5.73328 8.28866 5.64799C8.32434 5.54127 8.26675 5.42583 8.16003 5.39014C8.0357 5.34858 7.90997 5.31158 7.78329 5.27869C7.78334 5.27869 7.7834 5.27872 7.78345 5.27872C7.95782 5.16956 8.12262 5.03927 8.27414 4.88775C8.40818 4.75372 8.52649 4.60734 8.62922 4.45179C8.68539 4.4627 8.74114 4.47413 8.79607 4.48605C8.86925 4.50193 8.94209 4.519 9.01428 4.53691C9.01201 4.54577 9.00968 4.5546 9.0078 4.56359C8.90843 5.03514 8.91488 5.45218 9.02697 5.80309C9.1277 6.1185 9.30951 6.37402 9.56728 6.56261C9.87109 6.78486 10.2379 6.88087 10.5701 6.88087C10.8202 6.88087 11.0507 6.82645 11.22 6.73056C11.4116 6.62209 11.572 6.39352 11.699 6.05036C11.7577 6.11888 11.8134 6.18907 11.8658 6.26093C12.0785 6.55225 12.2408 6.87332 12.3483 7.21517C12.4115 7.41596 12.5682 7.57395 12.7676 7.63785L13.341 7.82155C13.4915 7.86975 13.5926 8.00825 13.5926 8.16624V9.11712C13.5926 9.27512 13.4915 9.41361 13.341 9.46182L12.4171 9.75776C12.2693 9.80515 12.1442 9.90673 12.0649 10.0438C11.7019 10.6711 11.1312 11.1903 10.3685 11.5868C10.2804 11.6326 10.2194 11.7146 10.201 11.8118L9.90511 13.3787C9.89693 13.4219 9.85912 13.4532 9.81518 13.4532H8.85303C8.80909 13.4532 8.77127 13.4218 8.7631 13.3787L8.5992 12.5128C8.56693 12.3424 8.40714 12.2292 8.23514 12.2553C7.82069 12.3179 7.39364 12.3497 6.9659 12.3497C6.64768 12.3497 6.33352 12.3319 6.03211 12.2969C5.86545 12.2777 5.7102 12.3913 5.67905 12.5559L5.5233 13.3787C5.51512 13.4219 5.47731 13.4532 5.43337 13.4532H4.47122C4.42728 13.4532 4.38946 13.4218 4.38118 13.378L4.09626 11.8981C4.07791 11.8028 4.01803 11.7217 3.93187 11.6757C2.63184 10.9817 1.94469 9.82221 1.94469 8.32268C1.94469 7.56504 2.11045 6.89509 2.43734 6.33137C2.74239 5.8053 3.18793 5.37034 3.76157 5.03853C3.85897 4.98217 3.89225 4.85754 3.83592 4.76011C3.77959 4.66272 3.65496 4.62949 3.55753 4.68577C2.44521 5.32922 1.77434 6.32191 1.58963 7.58273V7.5827C1.57002 7.58092 1.55039 7.57923 1.53084 7.5772C1.53439 7.44117 1.50979 7.3039 1.45619 7.17069C1.33798 6.87685 1.09517 6.66477 0.837566 6.6304C0.634566 6.60322 0.441383 6.68941 0.307316 6.86654C0.11293 7.12341 0.144621 7.32668 0.205406 7.45197C0.308027 7.66342 0.571813 7.81299 1.00956 7.90702C0.997527 7.92504 0.984293 7.94315 0.969801 7.96133C0.711156 8.28571 0.406437 8.35743 0.208578 8.36418C0.09275 8.36809 0 8.46109 0 8.577V8.57799C0 8.69231 0.090207 8.78555 0.204422 8.79077C0.219051 8.79146 0.234336 8.79181 0.25025 8.79181C0.500609 8.79181 0.902426 8.69947 1.28846 8.21541C1.34941 8.13901 1.39907 8.0584 1.43724 7.97511C1.47569 7.97946 1.51263 7.98318 1.54801 7.98646C1.54801 7.98638 1.54801 7.98632 1.54804 7.98624C1.54109 8.09665 1.53724 8.20868 1.53724 8.32268C1.53724 9.1711 1.7395 9.92756 2.13836 10.5712C2.50614 11.1645 3.0327 11.6504 3.70393 12.0157L3.98092 13.4544C4.02546 13.6898 4.23166 13.8607 4.47122 13.8607H5.43337C5.67293 13.8607 5.87912 13.6898 5.92367 13.4544L6.06449 12.7105C6.35696 12.7415 6.65976 12.7571 6.96588 12.7571C7.38587 12.7571 7.80538 12.7279 8.21423 12.6701L8.36268 13.4545C8.40725 13.6899 8.61345 13.8607 8.85298 13.8607H9.81512C10.0547 13.8607 10.2609 13.6898 10.3054 13.4544L10.5936 11.9289C11.4075 11.4984 12.0211 10.933 12.4175 10.2479C12.4461 10.1985 12.4901 10.1623 12.5414 10.1458L13.4653 9.84991C13.7851 9.7474 14 9.45293 14 9.11707V8.16619C14 7.83035 13.7851 7.53589 13.4653 7.43343ZM11.5193 5.01195C11.4409 5.68258 11.2305 6.25625 11.0192 6.37597C10.7789 6.51206 10.2243 6.53833 9.80782 6.2337C9.39088 5.9287 9.25211 5.38024 9.40647 4.64759C9.40647 4.64757 9.40647 4.64757 9.40647 4.64757C9.42197 4.57399 9.47425 4.51033 9.5463 4.47735C10.5663 4.01043 11.1544 3.85772 11.3729 3.85772C11.4059 3.85772 11.4304 3.86119 11.4468 3.86759C11.5124 3.93753 11.5985 4.33514 11.5193 5.01195ZM0.572059 7.27404C0.550977 7.23057 0.600742 7.15414 0.632297 7.11241C0.682309 7.04635 0.728383 7.03284 0.763191 7.03284C0.770547 7.03284 0.77741 7.03345 0.783699 7.03429C0.877379 7.04679 1.00863 7.14988 1.07816 7.32272C1.09454 7.3634 1.11582 7.43081 1.12079 7.51486C0.838742 7.45643 0.619609 7.37218 0.572059 7.27404Z" />
            <path d="M6.50548 2.68661V1.95752C6.7569 1.97548 6.85031 2.09041 6.9365 2.09041C7.04426 2.09041 7.09454 1.95394 7.09454 1.88569C7.09454 1.70968 6.74971 1.63426 6.50548 1.62707V1.53005C6.50548 1.48696 6.45158 1.44745 6.39771 1.44745C6.33663 1.44745 6.29353 1.48696 6.29353 1.53005V1.63421C5.95231 1.67014 5.61109 1.84973 5.61109 2.3023C5.61109 2.76205 5.97028 2.89136 6.29353 3.00629V3.85036C5.92716 3.82162 5.83019 3.5702 5.71166 3.5702C5.62186 3.5702 5.54645 3.68873 5.54645 3.77495C5.54645 3.95093 5.84816 4.19158 6.29353 4.19878V4.31012C6.29353 4.35321 6.33666 4.39272 6.39771 4.39272C6.45161 4.39272 6.50548 4.35321 6.50548 4.31012V4.188C6.8934 4.13411 7.15918 3.88987 7.15918 3.44808C7.15918 2.95961 6.81796 2.80154 6.50548 2.68661ZM6.31508 2.61839C6.12471 2.54656 5.97028 2.47114 5.97028 2.26642C5.97028 2.07964 6.11394 1.98984 6.31508 1.96471V2.61839ZM6.4839 3.84317V3.08531C6.65989 3.16073 6.79997 3.2613 6.79997 3.48757C6.79997 3.69234 6.67785 3.80727 6.4839 3.84317Z" />
        </symbol>
        <symbol  viewBox="0 0 34 34"  id="icon_image_select" xmlns="http://www.w3.org/2000/svg">
            <g clip-path="url(#clip0)">
                <path d="M24.725 33.9986C24.487 33.9986 24.2433 33.9689 24.0025 33.9051L2.09655 28.0387C0.594879 27.6251 -0.300454 26.0696 0.0933791 24.5679L2.8573 14.2659C2.9593 13.8876 3.34746 13.668 3.7243 13.7644C4.10255 13.865 4.32638 14.2546 4.2258 14.6314L1.4633 24.9306C1.26638 25.6814 1.71688 26.4634 2.46913 26.6716L24.3665 32.5352C25.1188 32.7336 25.8951 32.2859 26.0906 31.5379L27.197 27.4381C27.299 27.0598 27.6872 26.8346 28.0655 26.938C28.4437 27.04 28.6661 27.4296 28.5655 27.8064L27.4605 31.9006C27.1276 33.1614 25.9801 33.9986 24.725 33.9986Z"/>
                <path d="M31.1666 25.4989H8.4999C6.93731 25.4989 5.66656 24.2282 5.66656 22.6656V5.66561C5.66656 4.10303 6.93731 2.83228 8.4999 2.83228H31.1666C32.7292 2.83228 33.9999 4.10303 33.9999 5.66561V22.6656C33.9999 24.2282 32.7292 25.4989 31.1666 25.4989ZM8.4999 4.24894C7.71932 4.24894 7.08323 4.88503 7.08323 5.66561V22.6656C7.08323 23.4462 7.71932 24.0823 8.4999 24.0823H31.1666C31.9471 24.0823 32.5832 23.4462 32.5832 22.6656V5.66561C32.5832 4.88503 31.9471 4.24894 31.1666 4.24894H8.4999Z"/>
                <path d="M12.7499 12.749C11.1873 12.749 9.91656 11.4782 9.91656 9.91567C9.91656 8.35309 11.1873 7.08234 12.7499 7.08234C14.3125 7.08234 15.5832 8.35309 15.5832 9.91567C15.5832 11.4782 14.3125 12.749 12.7499 12.749ZM12.7499 8.499C11.9693 8.499 11.3332 9.13508 11.3332 9.91567C11.3332 10.6963 11.9693 11.3323 12.7499 11.3323C13.5305 11.3323 14.1666 10.6963 14.1666 9.91567C14.1666 9.13508 13.5305 8.499 12.7499 8.499Z"/>
                <path d="M6.47419 23.9844C6.29286 23.9844 6.11152 23.915 5.97269 23.7775C5.69644 23.5013 5.69644 23.0522 5.97269 22.776L12.6636 16.085C13.4654 15.2832 14.8665 15.2832 15.6683 16.085L17.6602 18.0769L23.1738 11.461C23.5748 10.9808 24.1641 10.7017 24.7917 10.696H24.8073C25.4278 10.696 26.0157 10.9652 26.4208 11.437L33.83 20.0815C34.085 20.3775 34.051 20.8252 33.7535 21.0802C33.4574 21.3352 33.0112 21.3026 32.7547 21.0037L25.3456 12.3592C25.2082 12.2005 25.0183 12.1127 24.8073 12.1127C24.6599 12.1 24.4007 12.202 24.2633 12.3677L18.2523 19.58C18.1248 19.733 17.9393 19.825 17.7395 19.8335C17.5383 19.8477 17.3471 19.7684 17.2068 19.6267L14.6668 17.0866C14.399 16.8203 13.9329 16.8203 13.6652 17.0866L6.97427 23.7775C6.83686 23.915 6.65552 23.9844 6.47419 23.9844Z"/>
            </g>
            <defs>
                <clipPath id="clip0">
                    <rect width="34" height="34"/>
                </clipPath>
            </defs>
        </symbol>
        <symbol viewBox="0 0 34 34" id="icon_video_select"  xmlns="http://www.w3.org/2000/svg">
            <path d="M33.6471 8.17784C33.4282 8.04812 33.1575 8.04305 32.9341 8.16489L25.1331 12.4245V9.86866C25.1308 7.88041 23.5196 6.26922 21.5314 6.26697H3.60169C1.61345 6.26922 0.00225106 7.88041 0 9.86866V24.0897C0.00225106 26.078 1.61345 27.6892 3.60169 27.6914H21.5314C23.5196 27.6892 25.1308 26.078 25.1331 24.0897V21.5804L32.9344 25.8399C33.1575 25.9618 33.4285 25.957 33.6471 25.8273C33.8661 25.6973 34 25.4618 34 25.2077V8.79716C34 8.54279 33.8658 8.30755 33.6471 8.17784ZM23.6918 24.09C23.6907 25.2831 22.7239 26.2496 21.5308 26.251H3.60169C2.40863 26.2496 1.44208 25.2831 1.44068 24.09V9.86866C1.44208 8.67588 2.40863 7.70905 3.60169 7.70765H21.5314C22.7242 7.70905 23.691 8.67588 23.6924 9.86866L23.6918 24.09ZM32.5593 23.9938L25.1331 19.9391V14.0658L32.5593 10.0113V23.9938Z"/>
        </symbol>
        <symbol viewBox="0 0 38 38" id="icon_abc_select" xmlns="http://www.w3.org/2000/svg">
            <g clip-path="url(#clip0)">
                <path d="M27.7823 13.7956L22.9788 1.53456C22.7119 0.881202 21.9718 0.560882 21.3128 0.813316L9.05169 5.61677C8.39248 5.87768 8.06964 6.62362 8.33045 7.28284L13.17 19.5439C13.4309 20.2031 14.1768 20.526 14.836 20.2652L27.061 15.4617C27.7202 15.2008 28.0431 14.4548 27.7823 13.7956ZM14.4538 18.8587L9.76572 6.92943L21.695 2.23416L26.3831 14.1707L14.4538 18.8587Z" />
                <path d="M15.9397 21.491H2.8059C2.09683 21.491 1.52209 22.0657 1.52209 22.7748V35.9158C1.52209 36.6248 2.09683 37.1996 2.8059 37.1996H15.9397C16.6487 37.1996 17.2235 36.6248 17.2235 35.9158V22.7748C17.2235 22.0657 16.6487 21.491 15.9397 21.491ZM15.781 35.7499H2.96457V22.9334H15.781V35.7499Z" />
                <path d="M35.3337 21.4195L22.6399 18.0441C21.9478 17.8752 21.248 18.2925 21.0676 18.9817L17.6922 31.6755C17.5088 32.3604 17.9154 33.0643 18.6003 33.2476C18.6005 33.2477 18.6008 33.2477 18.601 33.2478L31.2948 36.6232C31.9797 36.8066 32.6835 36.4 32.8669 35.7151C32.867 35.7149 32.867 35.7146 32.8671 35.7145L36.2136 22.9918C36.3991 22.3153 36.0072 21.6152 35.3337 21.4195ZM31.5183 35.123L19.1275 31.8702L22.4235 19.4866L34.8072 22.7826L31.5183 35.123Z"/>
                <path d="M22.366 11.9634C22.235 11.7143 22.0617 11.4898 21.8539 11.2999L18.2477 7.49897L17.8222 7.03738C17.7152 6.92649 17.5968 6.82741 17.4687 6.74167C17.3393 6.65359 17.1912 6.59679 17.036 6.57578C16.6669 6.55 16.306 6.69325 16.0551 6.96525C15.9559 7.08696 15.8868 7.23022 15.8532 7.38357C15.8166 7.56388 15.7996 7.74771 15.8027 7.93171C15.8027 8.14087 15.8027 8.32118 15.8027 8.47264V13.7233C15.8171 13.9396 15.8291 14.1055 15.8387 14.2209C15.8442 14.3294 15.8662 14.4364 15.9037 14.5383C15.9738 14.7075 16.1129 14.8388 16.2859 14.8989C16.4615 14.971 16.6584 14.971 16.8341 14.8989C17.0127 14.8481 17.1553 14.7135 17.2163 14.5383C17.2704 14.2605 17.2898 13.977 17.274 13.6944V12.663L20.1229 11.5451L20.8009 12.2664L21.111 12.5765C21.1994 12.6699 21.2986 12.7522 21.4067 12.8217C21.4879 12.8706 21.5792 12.9002 21.6736 12.9083C21.7795 12.9159 21.8857 12.8986 21.9837 12.8578C22.1532 12.7882 22.2899 12.6566 22.366 12.49C22.4377 12.3218 22.4377 12.1316 22.366 11.9634ZM17.2091 11.4369L17.1081 8.16251L19.3007 10.6147L17.2091 11.4369Z" />
                <path d="M11.1722 28.7842C11.8592 28.5276 12.31 27.8659 12.2973 27.1326C12.2979 26.9211 12.2612 26.7111 12.1891 26.5123C12.1183 26.3152 12.0133 26.132 11.879 25.9714C11.7465 25.8114 11.5881 25.6748 11.4102 25.5675C11.1888 25.4351 10.9439 25.3469 10.6889 25.3079C10.3811 25.2608 10.0699 25.2392 9.75854 25.2429H7.36402C7.10428 25.2146 6.84409 25.2926 6.64277 25.4593C6.47824 25.6617 6.40053 25.921 6.4264 26.1806V31.8351C6.40008 32.0935 6.475 32.3521 6.63556 32.5563C6.8367 32.729 7.10067 32.81 7.36402 32.7799H9.66477C10.0006 32.7695 10.3353 32.7381 10.6673 32.6861C10.9395 32.6541 11.2063 32.5862 11.4607 32.4842C11.8168 32.3359 12.1206 32.0848 12.3334 31.7629C12.5506 31.423 12.6635 31.0268 12.6579 30.6234C12.6745 29.731 12.048 28.9556 11.1722 28.7842ZM7.96265 26.4041H9.16712C9.5867 26.3825 10.0063 26.4462 10.4004 26.5917C10.6732 26.7234 10.8345 27.0115 10.8043 27.3129C10.806 27.4828 10.7611 27.6499 10.6745 27.7961C10.5753 27.9899 10.4046 28.1374 10.1985 28.2072C9.91279 28.2898 9.61573 28.3263 9.31858 28.3154H7.92658L7.96265 26.4041ZM11.1073 30.5224C11.1073 31.2628 10.5927 31.6331 9.5638 31.6331H7.92658L7.96265 29.4406H9.52774C9.94317 29.4143 10.3577 29.5042 10.725 29.7002C10.9898 29.8865 11.1354 30.1998 11.1073 30.5224Z" />
                <path d="M30.5811 25.1996C30.3971 24.7445 30.1021 24.3428 29.7228 24.0312C29.3044 23.6821 28.8106 23.4353 28.2803 23.31C27.8111 23.1802 27.3211 23.1435 26.8378 23.2018C26.373 23.2585 25.9255 23.4134 25.5251 23.6562C25.1109 23.9113 24.7546 24.2503 24.4793 24.6515C24.1692 25.1081 23.9421 25.616 23.8086 26.1517C23.7148 26.4933 23.6568 26.8438 23.6355 27.1975C23.6169 27.5282 23.6387 27.8601 23.7004 28.1855C23.7586 28.4946 23.8555 28.7951 23.9889 29.0799C24.1277 29.3722 24.3127 29.6401 24.537 29.8733C24.7605 30.1021 25.0185 30.2944 25.3016 30.443C25.6247 30.6111 25.9658 30.7417 26.3185 30.8325C26.7705 30.9623 27.244 30.9991 27.7105 30.9407C28.1036 30.8802 28.4796 30.7377 28.814 30.5224C29.0904 30.3496 29.3345 30.13 29.5353 29.8733C29.706 29.6606 29.8311 29.4151 29.9031 29.152C29.9538 28.9821 29.9301 28.7987 29.8382 28.6471C29.7505 28.4952 29.6047 28.3858 29.4343 28.3442C29.2677 28.2842 29.0823 28.3083 28.9366 28.4091C28.7973 28.5233 28.6779 28.6598 28.5832 28.813C28.3593 29.1389 28.0427 29.3902 27.6744 29.5343C27.2995 29.6565 26.8954 29.6565 26.5205 29.5343C26.1798 29.4681 25.8633 29.3111 25.6045 29.0799C25.3541 28.7951 25.198 28.4399 25.1573 28.0629C25.109 27.5778 25.1555 27.0878 25.2944 26.6205C25.423 25.8962 25.7944 25.2375 26.3474 24.7524C26.8093 24.3928 27.4171 24.2799 27.9774 24.4495C28.3191 24.528 28.6287 24.7092 28.8645 24.9688C29.0953 25.2564 29.2536 25.5953 29.3261 25.9569C29.3629 26.1484 29.4285 26.3332 29.5208 26.5051C29.6139 26.6343 29.7535 26.7222 29.9103 26.7503C30.0752 26.7959 30.2518 26.7669 30.3935 26.6709C30.54 26.5823 30.6461 26.44 30.6892 26.2743C30.7652 25.9135 30.7275 25.538 30.5811 25.1996Z"/>
            </g>
            <defs>
                <clipPath id="clip0">
                    <rect width="36.4727" height="36.4727" transform="translate(0.654549 0.727295)"/>
                </clipPath>
            </defs>
        </symbol>
        <symbol viewBox="0 0 34 34" id="icon_phone_select" xmlns="http://www.w3.org/2000/svg">
            <path d="M17 2.05859C7.66262 2.05859 0 9.6548 0 18.9922V26.9609C0 28.6087 1.34048 29.9492 2.98828 29.9492H3.98438V19.9883H2.98828C2.63739 19.9883 2.30529 20.0601 1.99219 20.1718V18.9922C1.99219 10.753 8.76084 4.05078 17 4.05078C25.2392 4.05078 32.0078 10.753 32.0078 18.9922V20.1718C31.6947 20.0601 31.3626 19.9883 31.0117 19.9883H30.0156V29.9492H31.0117C32.6595 29.9492 34 28.6087 34 26.9609V18.9922C34 9.6548 26.3374 2.05859 17 2.05859Z"/>
            <path d="M8.96484 17.9961H7.96875C6.86846 17.9961 5.97656 18.888 5.97656 19.9883V29.9492C5.97656 31.0495 6.86846 31.9414 7.96875 31.9414H8.96484C9.51495 31.9414 9.96094 31.4954 9.96094 30.9453V18.9922C9.96094 18.4421 9.51495 17.9961 8.96484 17.9961Z" />
            <path d="M26.0312 17.9961H25.0352C24.485 17.9961 24.0391 18.4421 24.0391 18.9922V30.9453C24.0391 31.4954 24.485 31.9414 25.0352 31.9414H26.0312C27.1315 31.9414 28.0234 31.0495 28.0234 29.9492V19.9883C28.0234 18.888 27.1315 17.9961 26.0312 17.9961Z" />
        </symbol>
        <symbol viewBox="0 0 14 14" id="icon_create_pro" xmlns="http://www.w3.org/2000/svg">
            <path d="M7 1V13" stroke="white" stroke-width="2" stroke-miterlimit="10" stroke-linecap="round" stroke-linejoin="round"/>
            <path d="M13 7H1" stroke="white" stroke-width="2" stroke-miterlimit="10" stroke-linecap="round" stroke-linejoin="round"/>
        </symbol>

    </defs>
</svg>
