<svg width="595" height="594" viewBox="0 0 595 594" fill="none" xmlns="http://www.w3.org/2000/svg">
<path d="M576.553 195.403H493.444C510.052 226.459 519.572 262.713 519.572 300.723C519.572 424.947 418.91 525.677 294.686 525.677C170.462 525.677 69.7323 424.542 69.7323 300.318C69.7323 296.74 69.8673 293.972 70.0023 289.246H0.666406C0.598893 292.622 0.463867 294.445 0.463867 296.808C0.463867 460.797 133.397 594 297.454 594C461.511 594 594.444 460.999 594.444 297.01C594.376 261.363 588.097 228.484 576.553 195.403Z" fill="url(#paint0_linear)"/>
<path d="M294.686 75.7697C367.465 75.7697 432.142 111.012 473.19 162.997H562.848C514.036 66.4529 413.576 0.155121 297.386 0.155121C146.495 0.155121 21.8656 114.387 2.96191 259.54H73.7831C93.4969 155.57 184.842 75.7697 294.686 75.7697Z" fill="url(#paint1_linear)"/>
<path d="M2.01709 259.54H255.799V474.907H328.038V259.54H538.003V195.403H58.7281L2.01709 259.54Z" fill="url(#paint2_linear)"/>
<defs>
<linearGradient id="paint0_linear" x1="0.440575" y1="394.725" x2="594.389" y2="394.725" gradientUnits="userSpaceOnUse">
<stop stop-color="#00FFFF"/>
<stop offset="0.7258" stop-color="#2CC7C5"/>
<stop offset="1" stop-color="#31C0BE"/>
</linearGradient>
<linearGradient id="paint1_linear" x1="2.97002" y1="129.849" x2="562.863" y2="129.849" gradientUnits="userSpaceOnUse">
<stop stop-color="#00FFFF"/>
<stop offset="0.7258" stop-color="#2CC7C5"/>
<stop offset="1" stop-color="#31C0BE"/>
</linearGradient>
<linearGradient id="paint2_linear" x1="2.01648" y1="335.155" x2="538.003" y2="335.155" gradientUnits="userSpaceOnUse">
<stop stop-color="#00FFFF"/>
<stop offset="0.7258" stop-color="#2CC7C5"/>
<stop offset="1" stop-color="#31C0BE"/>
</linearGradient>
</defs>
</svg>
