<?xml version="1.0" encoding="utf-8"?>
<!-- Generator: Adobe Illustrator 24.0.0, SVG Export Plug-In . SVG Version: 6.00 Build 0)  -->
<svg version="1.1" id="Layer_1" xmlns="http://www.w3.org/2000/svg" xmlns:xlink="http://www.w3.org/1999/xlink" x="0px" y="0px"
	 viewBox="0 0 512 512" style="enable-background:new 0 0 512 512;" xml:space="preserve">
<style type="text/css">
	.st0{fill:#603A17;}
	.st1{fill:none;}
	.st2{fill:#FFFFFF;}
	.st3{fill:#CCCAC6;}
	.st4{fill:#FEBE2F;}
	.st5{fill:#EAA622;}
	.st6{fill:#603B19;}
</style>
<g>
	<g>
		<path class="st0" d="M475.7,118c-9.6,0.1-17.6-7.7-17.5-17c0.1-9.2,8.4-17.2,17.7-17c9.1,0.2,16.4,7.5,16.7,16.7
			C492.9,110.3,485.5,117.9,475.7,118z"/>
		<path class="st0" d="M374,141.1c38,0.3,68.7,31.1,68.9,69.3c0.2,38-31.8,69.8-70.1,69.7c-38.2-0.1-70.2-32.5-69.5-70.3
			C304.1,170.9,335.1,140.8,374,141.1z M373.7,252c23.4-0.2,41.5-18.5,41.3-41.9c-0.1-22.9-19.2-41.9-41.8-41.9
			c-23.4,0.1-42.3,19.5-41.9,43C331.6,234.4,350.2,252.2,373.7,252z"/>
		<path class="st0" d="M154.7,210.7c-0.2-38.5,30.1-69.4,68.2-69.6c39-0.2,70.4,30.1,71,68.5c0.6,37.9-31.2,70.3-69.3,70.5
			C185.9,280.4,154.8,249.5,154.7,210.7z M265.7,210.1c-0.1-23-18.8-41.9-41.7-41.9c-22.4-0.1-41.9,19.3-42.2,41.8
			c-0.3,23.4,18.8,42.2,42.7,42C248.1,251.8,265.8,233.7,265.7,210.1z"/>
		<path class="st0" d="M154.9,298.9c5-6.3,10.2-12.7,15.9-19.9c35.3,24.4,70.6,24.8,106.3,0c5.7,6.9,11.1,13.5,16.4,20.1
			C257.8,333.3,186.8,333.2,154.9,298.9z"/>
		<rect x="461.4" y="141.2" class="st0" width="27.9" height="138.8"/>
		<path class="st0" d="M46.6,280.2v-77.5c0-18.6,15.1-33.7,33.7-33.7c18.6,0,33.7,15.1,33.7,33.7v77.5h27.1v-77.5
			c0-33.5-27.3-60.8-60.8-60.8c-33.5,0-60.8,27.3-60.8,60.8v77.5H46.6z"/>
	</g>
	<g>
		<path class="st0" d="M447.6,382.6c-1.5-15-14.2-26.8-29.5-26.9c-16.7-0.1-29.9,12.8-30.2,29.4c-0.3,16.2,13.4,30,29.7,30.1
			c2.8,0,5.6-0.4,8.2-1.2v-12.7c-2.3,1.1-5,1.8-7.8,1.8c-10.1,0.1-18-7.5-18.2-17.4c-0.2-10.1,7.9-18.4,17.9-18.4
			c9.7,0,17.9,8.1,17.9,17.9c0,0.1,0,28.6,0,28.6h12V382.6z"/>
		<path class="st0" d="M465.5,415.5v-32.6c0-8,6.5-14.4,14.4-14.4c8,0,14.4,6.5,14.4,14.4v32.6H506v-32.6c0-14.4-11.7-26-26-26
			c-14.4,0-26,11.7-26,26v32.6H465.5z"/>
		<g>
			<path class="st0" d="M91,356.9c-5.3,0-10.2,1.6-14.3,4.3v-23h-12v77.9h12v-35.3c1-7,7-12.3,14.3-12.3c8,0,14.4,6.5,14.4,14.4
				v33.2h11.6v-33.2C117.1,368.6,105.4,356.9,91,356.9z"/>
			<path class="st0" d="M239,386.3c-0.1-16.5,12.9-29.7,29.2-29.8c16.7-0.1,30.1,12.9,30.4,29.3c0.3,16.2-13.3,30.1-29.7,30.2
				C252.4,416.1,239.1,402.9,239,386.3z M286.5,386.1c0-9.9-8-17.9-17.8-17.9c-9.6,0-17.9,8.3-18,17.9c-0.1,10,8.1,18,18.3,18
				C279,403.9,286.5,396.2,286.5,386.1z"/>
			<path class="st0" d="M239.1,426.4c2.2-2.7,4.3-5.4,6.8-8.5c15.1,10.4,30.2,10.6,45.5,0c2.4,3,4.7,5.8,7,8.6
				C283.1,441.2,252.7,441.1,239.1,426.4z"/>
			<path class="st0" d="M193.9,415.5v-32.6c0-8,6.5-14.4,14.4-14.4c8,0,14.4,6.5,14.4,14.4v32.6h11.6v-32.6c0-14.4-11.7-26-26-26
				c-14.4,0-26,11.7-26,26v32.6H193.9z"/>
			<path class="st0" d="M46.9,399.6c-3,2.3-6.7,3.7-10.8,3.7c-10.1,0.1-18-7.5-18.2-17.4c-0.2-10.1,7.9-18.4,17.9-18.4
				c4,0,7.7,1.4,10.8,3.7l11.9-5c-5.4-6.3-13.4-10.3-22.2-10.3C19.6,355.7,6.3,368.6,6,385.2c-0.3,16.2,13.4,30,29.7,30.1
				c9,0,17.2-4.1,22.8-10.5L46.9,399.6z"/>
			<path class="st0" d="M135.2,356.9v32.6c0,8,6.5,14.4,14.4,14.4c8,0,14.4-6.5,14.4-14.4v-32.6h11.6v32.6c0,14.4-11.7,26-26,26
				c-14.4,0-26-11.7-26-26v-32.6H135.2z"/>
		</g>
		
			<rect x="406.6" y="336" transform="matrix(0.8156 0.5786 -0.5786 0.8156 274.3372 -179.6456)" class="st0" width="24.7" height="9.2"/>
		<g>
			<path class="st1" d="M355.7,404c10.1-0.1,17.6-7.8,17.6-17.9c0-9.9-8-17.9-17.8-17.9c-8.7,0-16.3,6.8-17.8,15.2v5.9
				C339.2,397.7,346.6,404.1,355.7,404z"/>
			<path class="st0" d="M355,356.5c-6.5,0-12.5,2.2-17.3,5.7v-24.1h-11.9c0,0,0,49.4,0.1,50c1,15.7,13.9,28,29.9,27.9
				c16.3-0.1,29.9-14,29.7-30.2C385.1,369.4,371.7,356.5,355,356.5z M355.7,404c-9.1,0.1-16.5-6.3-18-14.7c-0.2-1-0.3-2.1-0.3-3.2
				c0-0.9,0.1-1.8,0.3-2.7c1.5-8.4,9.1-15.2,17.8-15.2c9.8,0,17.8,8.1,17.8,17.9C373.4,396.2,365.8,403.9,355.7,404z"/>
		</g>
	</g>
	<g>
		<path class="st2" d="M146.7,175.9c-0.2,5.4,14.5,18.4,19.6,22.8c5,4.4,12,9.4,10.3,13.7c-1.6,4.2-6,12.7-4,17.3
			c2.1,4.6,22.4,13.1,46.2,20.9c23.7,7.9,35,5.8,39.8,3.2c4.7-2.6,8.7-28.5,8.7-28.5l16.7-77.6l6.8-28l-69.7-15.2l-6.5,12.1
			l-2.5,0.4c-3.6-0.2-22.2-5.9-25.4-6.6c-6.5-1.5-8.7,2.5-10.7,5.8c-2,3.3-19.1,36.4-19.1,36.4S146.9,170.5,146.7,175.9z
			 M165.1,157.8c1.7-3.6,16.4-33.3,17.6-35.6c1.2-2.3,4.7-3.3,6.2-2.6c1.2,0.5,12.1,3.8,14,4.6c1.9,0.8,8.3,2.3,5.8,8.7
			c-1.5,3.9-23.1,58.9-24.6,60.9c-1.4,2-4.4,1.7-7-0.3c-2.6-2-20-14.5-19.1-18.7C159.1,170.5,163.4,161.4,165.1,157.8z"/>
		<path class="st3" d="M266.6,208.6c-2.2,14.4-5.3,31.1-7.3,35.7c-2.1,4.6-5.6,7.4-22.4,3.8c-22.9-4.9-50.5-13.5-54.7-19.6
			c-2.4-3.5-4.1-9.5,2.4-24.2c0,0-3.3,11.2-3.1,14.6c0.2,3.1-0.4,7.1,11.1,11.7c11.5,4.6,52.8,18.2,59.9,15.4
			c7.1-2.7,6.8-8.9,8.2-15C262.2,225,266.6,208.6,266.6,208.6z"/>
		<path class="st3" d="M211.7,118.1c-1.1,2.4-2,5.1-7,3.7c-5-1.4-15.9-3.8-18.1-3.7l6.8,2.8l16.6,6.8L211.7,118.1z"/>
		<path class="st3" d="M187.3,118.2c-5.2-0.3-6.5,0.1-9.4,5.6c-3,5.4-18.6,37.4-20.7,41.8c-2.1,4.5-6.4,13.7-10.1,12.6
			c0,0,1,4.7,9.1,11.7c8.1,7,21,17.2,20.3,20.9l7.4-15.6c0,0-5.9-0.3-12.9-6c-7.1-5.7-12.8-11-12.7-14.1
			c0.1-3.1,21.5-49.4,23.8-52.2C184.3,120.1,187.3,118.2,187.3,118.2z"/>
		<path class="st4" d="M270.7,188.3l8.6-34.9L212,132.8c-9.7,27.9-20.4,56.5-26.5,70.7c-3.5,8.2-6.4,14.5-2.5,20.5
			c3.1,4.8,19.1,10.6,33.2,14.9c17.6,5.4,32.1,9,37.5,6.9c5-2,6.2-11,7.8-17.8c4.8-20.1,10.6-46.9,17.8-74.6"/>
		<path class="st5" d="M183,224c3.1,4.8,19.1,10.6,33.2,14.9c17.6,5.4,32.1,9,37.5,6.9c5-2,6.2-11,7.8-17.8
			c4.8-20.1,10.6-46.9,17.8-74.6L212,132.8c-9.7,27.9-20.4,56.5-26.5,70.7C182,211.7,179.1,218,183,224z M194.5,201
			c4.1-9.4,11.7-32.2,18.7-50.4c2.5-6.4,7.7-10.5,15.7-7.9c10.9,3.6,26.5,8.1,31.7,9.7c8.3,2.5,9.7,7.4,8.2,12.8
			c-5.1,18.6-10.1,41.7-13.3,55.5c-1.3,5.5-2.2,12.7-6.3,14.3c-0.8,0.3-1.8,0.5-3,0.5c-0.6,0,14.6-60.8,13.9-60.9
			c-0.7,0-17.3,60.7-18.1,60.6c-5.7-0.8-13.7-2.9-22.8-5.7c-0.8-0.2,4.9-21.1,4-21.3c-0.8-0.3-8.1,20.1-8.9,19.8
			c-4.9-1.6-9.8-3.4-13.8-5.2c-0.9-0.4,14.3-47.7,13.5-48.1c-0.9-0.5-17.8,45.9-18.5,45.5c-1.4-0.9-2.4-1.7-2.9-2.6
			C189.4,212.6,191.7,207.6,194.5,201z"/>
		<path class="st6" d="M288.2,131.7c-4.1,3-11.1,0.4-13-5.2c0,0-1.2,2.1-4.7,3.5c-3.5,1.4-7.3,5.7-6.9,13.3l-6.2-1.9
			c0,0,5.4-10.4,3.4-12.5c-3.5-3.6-2.3-7.6-2.3-7.6s-7.4,8.8-18.9,6.2c-10.6-2.4-14-13-14-13s-3.7,3.9-10.6,1.5l4-11.2l71,19.5
			L288.2,131.7z"/>
		<path class="st2" d="M256.3,159.2c2,0.5,4.3-0.2,5.8-1.7c0.8-0.8,1.3-1.6,1.6-2.6c0.2-0.9,0.4-1.8,0.4-2.9c0-1.3-0.1-2.5-0.2-3.8
			c-0.1-0.7-0.1-1.3-0.2-2c-0.1-1.6-0.1-3.4,0.1-5.7c0.1-2.1,0.3-3.9,0.7-5.6c0.3-1.8,0.8-3.7,1.6-5.4c0.5-0.9,1.1-1.6,1.8-1.9
			l0.3-0.1l1.1-0.3c0.1,0,0.3-0.1,0.4-0.1c0.3-0.1,0.6-0.2,0.9-0.3c0.9-0.3,1.7-0.8,2.5-1.3c0.6-0.4,1.2-1,1.7-1.7l0.5-0.7l0.5,0.7
			c0.5,0.7,1.1,1.4,1.9,2c0.8,0.7,1.7,1.2,2.8,1.7l0.7,0.3l0.8,0.2l0.1,0c0.3,0.1,0.7,0.1,1,0.2c0.2,0,0.3,0,0.5,0.1
			c0.2,0,0.3,0,0.5,0c0.1,0,0.2,0,0.3,0c0.1,0,0.2,0,0.3,0c0.2,0,0.3,0,0.5,0c0.2,0,0.3,0,0.5,0c0.4,0,0.8,0,1.1-0.1l0.9-0.1
			l0.8-0.2c0.4-0.1,0.7-0.2,1-0.3c0.2-0.1,0.4-0.1,0.6-0.2c0.8-0.4,1.9-0.9,2.8-1.6c0.8-0.6,1.6-1.3,2.4-2.3
			c0.1-0.1,0.1-0.2,0.2-0.3c0.3-0.3,0.5-0.7,0.7-1l0.2-0.3c0.1-0.2,0.2-0.3,0.3-0.5l0.5-1.2c0,0,0.4-1.2,0.4-1.2s0.2-0.8,0.2-0.9
			c0-0.2,0.1-0.3,0.1-0.5c0-0.2,0-0.3,0.1-0.5c0.1-0.4,0.1-0.7,0.1-1.1l0-0.9l-0.1-0.8c0-0.4-0.1-0.7-0.1-1.1c0-0.2-0.1-0.3-0.1-0.5
			l0-0.1c-0.1-0.5-0.2-0.9-0.4-1.4l0-0.1c-0.2-0.5-0.4-0.9-0.6-1.4c-0.2-0.5-0.5-0.8-0.7-1.3l-0.1-0.2c-0.3-0.4-0.6-0.8-1-1.3
			c-0.1-0.1-0.2-0.2-0.3-0.3c-0.3-0.3-0.5-0.6-0.8-0.8c-0.8-0.8-1.8-1.4-2.6-1.8l-0.2-0.1c-0.4-0.2-0.8-0.4-1.2-0.5l-1-0.3l-0.5-0.1
			c-0.8-0.2-1.6-0.3-2.5-0.3l-1.3,0l0.9-1c0.1-0.1,0.1-0.1,0.2-0.2l0.2-0.2c0.1-0.2,0.3-0.4,0.4-0.6l0.1-0.2
			c0.1-0.2,0.2-0.4,0.3-0.6l0.3-0.7c0,0,0-0.1,0-0.1l0-0.1c0.2-0.6,0.4-1.2,0.4-1.9c0.1-0.7,0.1-1.3,0-2c-0.1-0.7-0.2-1.4-0.4-2
			l0-0.1c-0.1-0.3-0.2-0.6-0.3-0.9c-0.1-0.3-0.3-0.6-0.5-0.9l-0.3-0.5l-0.3-0.4c-0.2-0.2-0.4-0.5-0.6-0.8c-0.2-0.3-0.5-0.5-0.7-0.7
			c-0.2-0.2-0.4-0.4-0.7-0.6l-0.1-0.1c-0.5-0.4-1.1-0.7-1.8-1c-0.2-0.1-0.4-0.2-0.6-0.3c-0.1,0-0.2-0.1-0.3-0.1l-0.3-0.1l-0.7-0.2
			c-0.2-0.1-0.5-0.1-0.8-0.1l-0.2,0c-0.1,0-0.2,0-0.4,0c-0.2,0-0.4,0-0.6,0c-0.7,0-1.4,0.1-2,0.2c-0.7,0.2-1.3,0.4-1.9,0.6
			c-0.6,0.3-1.2,0.7-1.7,1c-0.6,0.5-1.1,0.9-1.4,1.3c-0.3,0.3-0.5,0.6-0.8,1.1l-0.7,1.1l-0.4-1.2c-0.4-1.1-0.8-2.2-1.3-3.2
			c-0.7-1.3-1.4-2.5-2.2-3.5c-0.9-1.1-1.8-2.1-2.8-3.1c-1.1-1-2.2-1.8-3.3-2.5c-1.3-0.8-2.5-1.4-3.7-1.9c-0.3-0.1-0.5-0.2-0.7-0.3
			l-1-0.3c-0.1,0-0.2-0.1-0.2-0.1l-2.1-0.5c-0.4-0.1-0.9-0.1-1.3-0.2c-0.2,0-0.5-0.1-0.7-0.1c-0.3-0.1-0.7-0.1-1-0.1l-1.1-0.1
			c-0.6,0-1.1,0-1.6,0l-0.8,0c-0.2,0-0.5,0-0.7,0l-2.1,0.3c-0.2,0-0.4,0.1-0.6,0.1c-0.1,0-0.3,0.1-0.4,0.1c-0.2,0.1-0.4,0.1-0.6,0.2
			c-0.5,0.1-0.9,0.2-1.4,0.4l-1.1,0.4c-0.3,0.1-0.6,0.2-0.8,0.3c-0.2,0.1-0.5,0.2-0.7,0.3c-0.4,0.2-0.8,0.4-1.2,0.6l-1.8,1.1
			l-1.7,1.3c-0.3,0.3-0.7,0.6-1,0.9c-0.2,0.2-0.4,0.3-0.5,0.5c-0.3,0.2-0.5,0.5-0.7,0.7l-0.7,0.8c-0.4,0.4-0.7,0.8-1,1.2
			c-0.1,0.1-0.5,0.6-0.5,0.7c-0.1,0.2-0.3,0.4-0.4,0.5l-1.1,1.8c-0.1,0.2-0.2,0.4-0.3,0.6c-0.1,0.1-0.1,0.2-0.2,0.4l-0.4,1l-0.2,0.5
			l-0.2,0.5c-0.1,0.2-0.2,0.5-0.2,0.7c-0.1,0.4-0.3,0.8-0.4,1.3c0,0.2-0.1,0.4-0.1,0.6c-0.1,0.5-0.2,0.9-0.3,1.4
			c-0.3,1.3-0.3,2.6-0.3,3.8l0,0.7l-0.7-0.2c-0.5-0.1-1-0.2-1.5-0.2c-0.7,0-1.3,0.1-1.8,0.2c-0.6,0.2-1.2,0.4-1.7,0.7
			c-0.6,0.3-1.1,0.8-1.5,1.2c-0.5,0.5-0.8,1-1.2,1.5c-0.2,0.3-0.3,0.6-0.4,0.9l-0.2,0.4c0,0.1-0.1,0.2-0.1,0.3c0,0.1,0,0.1-0.1,0.2
			c-0.2,0.7-0.3,1.4-0.3,1.9c0,0.5,0,1.2,0.2,1.9c0.1,0.6,0.4,1.3,0.7,1.8c0.3,0.6,0.7,1.1,1.2,1.6c0.5,0.5,1,0.9,1.5,1.2l0.1,0.1
			c0.1,0.1,0.2,0.1,0.3,0.2l0.5,0.2l0.2,0.1l0.7,0.2l0.9,0.2c0.2,0,0.4,0,0.6,0.1c0.1,0,0.2,0,0.3,0c0.3,0,0.6,0,0.9-0.1l0.1,0
			c0.2,0,0.4-0.1,0.6-0.1c0.1,0,0.2-0.1,0.3-0.1c0.2,0,0.4-0.1,0.6-0.2c0.1,0,0.2-0.1,0.3-0.1c0.2-0.1,0.5-0.3,0.8-0.4
			c0.2-0.2,0.5-0.4,0.7-0.6c0.1-0.1,0.2-0.2,0.3-0.3l0.7-0.7l0.4,0.9c0.3,0.6,0.6,1.1,0.9,1.7l0.7,1.1c0.2,0.3,0.4,0.6,0.6,0.8
			c0.2,0.2,0.3,0.4,0.5,0.6c0.4,0.4,0.7,0.9,1.1,1.2l0.9,0.9c0.2,0.2,0.4,0.3,0.6,0.5c0.1,0.1,0.2,0.2,0.4,0.3
			c0.2,0.2,0.4,0.3,0.6,0.5l0.3,0.3c0.2,0.1,0.4,0.3,0.6,0.4c0,0,0.6,0.4,0.7,0.5c0.2,0.1,0.4,0.3,0.7,0.4l1.1,0.5
			c0.1,0.1,0.3,0.1,0.4,0.2c0.2,0.1,0.5,0.2,0.7,0.3l1.7,0.6l0.3,0.1l1.9,0.5c0.3,0.1,0.5,0.1,0.8,0.2l1.2,0.1
			c0.4,0.1,0.8,0.1,1.2,0.1c0.2,0,0.5,0,0.7,0c0.2,0,0.3,0,0.5,0c0.2,0,0.4,0,0.6,0c0.6,0,1.2,0,1.7-0.1l1.8-0.2l0.6-0.1
			c0.2-0.1,0.5-0.1,0.7-0.2c0.6-0.1,1.1-0.2,1.6-0.4l1.2-0.4c0.1,0,0.2-0.1,0.4-0.1c0.2-0.1,0.5-0.2,0.7-0.3
			c0.3-0.1,0.5-0.3,0.8-0.4c0.5-0.2,1-0.5,1.4-0.8c0.3-0.2,0.6-0.4,0.9-0.6l0.5-0.4l0.4,0.1l0.6,0.2l0,0.4c0,0.7,0.1,1.3,0.3,2
			c0.2,0.9,0.6,1.7,1.2,2.6c0.1,0.1,0.1,0.2,0.2,0.3c0.2,0.3,0.4,0.6,0.6,0.8l0.2,0.2c0.1,0.1,0.2,0.2,0.3,0.3
			c0.1,0.2,0.2,0.3,0.3,0.6c0.2,0.7,0.1,1.6-0.2,2.8c-0.4,2-1.2,3.9-1.7,5.4c-0.7,1.7-1.5,3.5-2.5,5.1c-0.5,0.9-1,1.7-1.5,2.5
			c-0.3,0.4-0.5,0.8-0.8,1.2c-0.3,0.4-0.5,0.8-0.8,1.2c-0.1,0.2-0.3,0.4-0.4,0.6c-0.4,0.6-0.8,1.1-1.1,1.8l-0.8,1.3
			c-0.2,0.4-0.4,0.9-0.7,1.3c-0.1,0.3-0.2,0.5-0.4,0.8l-0.2,0.5c-0.2,0.5-0.3,1-0.3,1.4c-0.1,1,0,2.1,0.3,3c0.4,1,1,1.9,1.7,2.6
			l0.2,0.1c0.1,0.1,0.3,0.2,0.4,0.3c0.3,0.2,0.5,0.3,0.7,0.4l0.1,0.1c0.1,0,0.2,0.1,0.3,0.1l0.5,0.2l0.1,0L256.3,159.2z"/>
		<path class="st3" d="M276.5,115.9c0,4.1-3.6,7.8-7,6.5c-2.7-1,0.2-5.9,0-8.8c0,0-4.3,3.4-9.9,1.8c-4.2-1.2-5.8-4-6.3-6
			c0,0-0.3,3.8,0.8,5.3c1.1,1.6-8,6.2-20.3,0.6c-4.5-2-7.8-7.6-7.8-7.6s-2.6,2.4-7.4,0.8c-4.8-1.6-4.4-5.2-4.5-5.9
			c0,0-1.4,7.6,3.9,9.4c5.3,1.8,7.6-0.7,7.6-0.7s7.5,10.3,15.8,11.7c8.3,1.4,17.6-3.6,17.6-3.6s2,6.3,3.7,7.5
			c1.7,1.1-0.9,5.4-0.9,5.4s2.3-1.3,2.7,0.8c0,0,3.9-3.5,6.2-5.1c2.3-1.5,4.5-3,4.5-3s3.1,4,6.9,4.6c3.8,0.6,10.5-3.7,12.5-6.2
			c2-2.5,3.1-6.1,2.2-7.8c0,0,1.1,4.8-4.2,7.6C287.4,126.1,278.9,122.9,276.5,115.9z"/>
		<g>
			<path class="st6" d="M217.2,111.3c-4.4,14-9.4,27.7-14.6,41.4c-5.3,13.6-10.7,27.2-16.2,40.7l-8.2,20.3c-1.4,3.4-3.1,6.7-3.8,9.8
				c-0.3,1.6-0.4,3,0.1,4.4c0.2,0.7,0.5,1.4,0.9,2c0.2,0.4,0.3,0.5,0.6,0.8c0.2,0.2,0.5,0.5,0.8,0.7c1.2,1,2.7,1.9,4.3,2.7
				c1.5,0.8,3.1,1.6,4.8,2.4c3.3,1.5,6.6,2.8,10,4.1c6.8,2.6,13.7,4.8,20.6,6.9c6.9,2.1,14,3.9,21,5.3c3.5,0.7,7.1,1.3,10.6,1.5
				c1.7,0.1,3.5,0.1,5-0.1c0.4-0.1,0.8-0.1,1.1-0.2c0.3-0.1,0.6-0.2,0.9-0.4c0.7-0.3,1.3-0.7,1.9-1.2c2.3-1.9,3.5-5.1,4.3-8.5
				c0.4-1.7,0.8-3.5,1.2-5.3c0.4-1.8,0.8-3.6,1.2-5.4c1.6-7.1,3.2-14.2,4.7-21.3c3.1-14.3,6.1-28.6,9.4-42.8
				c3.4-14.2,6.9-28.4,11.2-42.4c0.1-0.3,0.4-0.5,0.8-0.4c0.3,0.1,0.5,0.4,0.4,0.7l0,0c-0.9,3.5-1.8,7.1-2.6,10.6
				c-0.9,3.5-1.7,7.1-2.5,10.7c-1.6,7.1-3.1,14.2-4.6,21.4c-3,14.3-5.8,28.6-8.6,42.9c-1.4,7.2-2.8,14.3-4.4,21.5
				c-0.4,1.8-0.8,3.6-1.2,5.3c-0.4,1.8-0.7,3.6-1.1,5.4c-0.4,1.8-1,3.7-1.8,5.6c-0.8,1.8-2,3.7-3.7,5.1c-0.8,0.7-1.8,1.3-2.7,1.8
				c-0.4,0.2-1.1,0.5-1.6,0.6c-0.6,0.2-1.1,0.3-1.6,0.3c-2.1,0.3-4,0.2-5.9,0.1c-3.8-0.3-7.5-0.9-11.1-1.6
				c-7.3-1.4-14.4-3.3-21.4-5.4c-7-2.1-14-4.5-20.9-7.1c-3.4-1.3-6.9-2.7-10.2-4.3c-1.7-0.8-3.4-1.6-5-2.5c-1.7-0.9-3.3-1.9-4.9-3.2
				c-0.2-0.2-0.4-0.3-0.6-0.5c-0.2-0.2-0.4-0.4-0.6-0.6c-0.4-0.4-0.8-1-1-1.4c-0.5-0.9-1-1.9-1.3-3c-0.6-2.1-0.6-4.4-0.1-6.4
				c0.5-2,1.2-3.8,1.9-5.5l2.2-5l4.2-10.1c1.4-3.4,2.8-6.7,4.3-10.1c5.8-13.4,11.5-26.8,17-40.3c2.8-6.7,5.6-13.5,8.2-20.3
				c1.3-3.4,2.7-6.8,3.9-10.2c1.3-3.4,2.6-6.8,3.8-10.2c0.1-0.3,0.5-0.5,0.8-0.4C217.1,110.6,217.3,111,217.2,111.3z"/>
		</g>
		<g>
			<path class="st6" d="M175.7,209.6c0-0.2-0.2-0.6-0.3-0.9c-0.2-0.3-0.4-0.6-0.6-0.9c-0.5-0.6-1-1.2-1.5-1.7
				c-1.1-1.1-2.3-2.1-3.5-3.2l-7.2-6.3c-2.4-2.1-4.8-4.2-7.2-6.4c-1.2-1.1-2.4-2.2-3.5-3.3c-1.1-1.1-2.3-2.3-3.3-3.6
				c-1-1.3-1.9-2.8-2.4-4.5c-0.5-1.7-0.6-3.5-0.3-5.2c0.3-1.7,0.9-3.3,1.6-4.8c0.7-1.5,1.5-2.8,2.2-4.3l8.7-17.1l8.8-17.1l4.5-8.5
				c0.8-1.4,1.5-2.8,2.3-4.2c0.8-1.4,1.6-2.8,2.4-4.2c0.4-0.7,0.9-1.4,1.5-2.1c0.6-0.7,1.4-1.4,2.3-1.8c0.9-0.4,1.9-0.6,2.7-0.6
				l0.7,0c0.2,0,0.5,0,0.7,0c0.4,0,0.9,0.1,1.3,0.2c3.3,0.5,6.3,1.3,9.5,2.1c6.2,1.6,12.4,3.3,18.5,5.1c0.7,0.2,1,0.9,0.8,1.5
				s-0.9,1-1.5,0.8l0,0l0,0c-6.1-1.8-12.3-3.5-18.4-5.1c-3.1-0.8-6.2-1.6-9.2-2.1c-0.4-0.1-0.7-0.1-1.1-0.1c-0.2,0-0.3,0-0.5,0
				l-0.5,0c-0.7,0-1.4,0.1-1.9,0.4c-1.1,0.4-1.9,1.6-2.8,2.9c-0.8,1.3-1.7,2.7-2.5,4.1c-0.8,1.3-1.5,2.8-2.3,4.2l-4.5,8.5l-8.8,17
				l-8.8,17.1c-1.4,2.9-3.3,5.5-3.8,8.4c-0.3,1.4-0.2,2.9,0.2,4.3c0.4,1.4,1.1,2.7,2,3.9c0.9,1.2,2,2.3,3.1,3.5
				c1.1,1.1,2.3,2.2,3.4,3.3c2.3,2.2,4.7,4.3,7.1,6.4l7.2,6.4l1.8,1.6c0.6,0.6,1.2,1.1,1.7,1.8c0.5,0.6,1.1,1.2,1.6,1.9
				c0.2,0.3,0.5,0.7,0.7,1.1c0.2,0.4,0.4,0.7,0.7,1.2l0.1,0.1c0.2,0.4,0,1-0.4,1.2c-0.4,0.2-1,0-1.2-0.4
				C175.7,210,175.7,209.8,175.7,209.6z"/>
		</g>
		<g>
			<path class="st6" d="M208.8,130.4c-0.4-1.1-0.9-1.9-1.6-2.5c-0.7-0.7-1.7-1.2-2.9-1.7c-1.1-0.5-2.3-0.8-3.5-1.3l-3.6-1.2
				c-2.4-0.8-4.8-1.6-7.2-2.1c-1.2-0.2-2.4-0.4-3.5-0.4c-0.5,0-1,0.1-1.3,0.2c0.2-0.2-0.3,0.4-0.6,0.8c-1.3,2-2.5,4.3-3.7,6.6
				c-1.2,2.3-2.3,4.6-3.4,6.9l-6.7,13.9l-6.6,13.9l-3.3,6.9c-0.5,1.1-0.9,2.2-1,3.2c-0.1,1,0,1.8,0.5,2.7c0.5,0.8,1.3,1.7,2.2,2.6
				c0.9,0.9,1.9,1.7,2.8,2.6l5.7,5.1c1.9,1.7,3.9,3.3,5.8,4.9l1.5,1.2c0.5,0.3,0.9,0.7,1.4,0.9c0.5,0.2,1,0.3,1.4,0.4
				c0.2,0,0.5,0,0.7,0c0.1,0,0.2,0,0.3-0.1c0.1,0,0.2-0.1,0.2-0.1c0.5-0.3,1.2-0.2,1.5,0.3c0.3,0.5,0.2,1.2-0.3,1.5
				c-0.3,0.2-0.4,0.2-0.7,0.3c-0.2,0.1-0.4,0.1-0.6,0.2c-0.4,0.1-0.8,0.1-1.2,0.1c-0.8,0-1.6-0.2-2.3-0.5c-0.7-0.3-1.4-0.7-1.9-1.1
				l-1.6-1.1c-2.1-1.5-4.1-3.2-6.1-4.8c-2-1.6-4-3.3-5.9-5c-1-0.9-1.9-1.7-2.9-2.6c-1-0.9-2-1.9-2.8-3.3c-0.9-1.4-1.1-3.2-0.9-4.8
				c0.2-1.5,0.7-2.8,1.3-4.1l3.3-7l6.6-14c2.2-4.6,4.4-9.3,6.7-13.9c1.2-2.3,2.3-4.6,3.5-6.9c1.2-2.3,2.4-4.6,3.9-6.8
				c0.2-0.3,0.4-0.6,0.6-0.9c0.1-0.2,0.3-0.3,0.5-0.5c0.1-0.1,0.4-0.3,0.5-0.4l0.3-0.2c0.9-0.4,1.7-0.4,2.5-0.4
				c1.5,0,2.8,0.2,4.2,0.5c2.6,0.6,5.1,1.4,7.6,2.2l3.6,1.3c1.2,0.4,2.4,0.8,3.7,1.4c1.3,0.5,2.6,1.2,3.7,2.3
				c1.1,1.1,1.7,2.8,1.7,4.2c0,0.6-0.5,1-1,1C209.4,131.2,209,130.9,208.8,130.4L208.8,130.4z"/>
		</g>
		<g>
			<path class="st6" d="M253.9,108.5c-0.4,2.1,0,4.2,1,5.9c1,1.7,2.6,3,4.5,3.5c1.9,0.6,3.9,0.4,5.7-0.4c1.8-0.9,3.3-2.4,4.1-4.3
				c0.1-0.2,0.2-0.2,0.4-0.2c0.1,0.1,0.2,0.2,0.2,0.3c-0.4,2.2-1.9,4.3-4,5.5c-2.1,1.2-4.7,1.5-7,0.8c-2.3-0.7-4.3-2.4-5.3-4.6
				c-1.1-2.1-1.1-4.7-0.2-6.8c0.1-0.2,0.2-0.2,0.4-0.2C253.9,108.2,253.9,108.4,253.9,108.5z"/>
		</g>
		<path class="st6" d="M212.2,117.1c0,0-2.9,5.1-3.3,10.6l1.3,1.3l4.1-11.3L212.2,117.1z"/>
		<path class="st6" d="M180.9,195.1c0,0-5.2,11.2-7,10.5l3.8,4.1l6.2-14.5L180.9,195.1z"/>
		<g>
			<path class="st6" d="M187.1,112.9c-1.2,0.1-2.5,0-3.6,0.1c-0.6,0.1-1.2,0.1-1.6,0.3c-0.2,0.1-0.4,0.2-0.6,0.4
				c-0.2,0.2-0.4,0.4-0.6,0.6c-0.8,0.9-1.5,1.9-2.2,2.9l-2.1,3c-0.1,0.1-0.2,0.1-0.3,0.1c-0.1-0.1-0.1-0.2-0.1-0.3
				c0.5-1.1,1.1-2.3,1.7-3.3c0.6-1.1,1.3-2.1,2.1-3.1c0.2-0.3,0.4-0.5,0.7-0.8c0.3-0.3,0.6-0.5,1-0.6c0.7-0.3,1.3-0.3,2-0.3
				c1.3,0,2.5,0.2,3.7,0.6c0.1,0,0.2,0.2,0.1,0.3C187.3,112.9,187.2,112.9,187.1,112.9z"/>
		</g>
		<g>
			<path class="st6" d="M158.2,181.3c1.6,1.7,3.4,3.2,5.1,4.8c1.8,1.5,3.6,3.1,5.4,4.5c1.8,1.5,3.7,2.9,5.5,4.3
				c0.9,0.7,1.9,1.4,2.8,2c0.5,0.3,1,0.6,1.4,0.8c0.2,0.1,0.5,0.2,0.7,0.3c0.1,0,0.2,0.1,0.2,0.1c0,0,0,0-0.1,0
				c-0.1,0-0.3,0-0.5,0.2c0.6-0.4,1.4-0.4,1.8,0.2c0.4,0.6,0.4,1.4-0.2,1.8c-0.4,0.3-0.7,0.3-0.9,0.3c-0.2,0-0.4,0-0.5,0
				c-0.3-0.1-0.5-0.1-0.6-0.2c-0.4-0.2-0.6-0.3-0.9-0.5c-0.6-0.3-1.1-0.7-1.5-1.1c-1-0.7-1.9-1.5-2.8-2.3c-1.8-1.5-3.6-3.1-5.3-4.7
				c-1.7-1.6-3.4-3.3-5.1-4.9c-1.7-1.7-3.3-3.4-4.8-5.2c-0.1-0.1-0.1-0.3,0-0.4C157.9,181.2,158.1,181.2,158.2,181.3L158.2,181.3z"
				/>
		</g>
		<g>
			<path class="st6" d="M175.6,122c-0.2,0.7-0.5,1.3-0.8,2c-0.3,0.6-0.6,1.3-1,1.9c-0.7,1.2-1.4,2.4-2.2,3.6c-0.1,0.1-0.2,0.1-0.3,0
				c-0.1-0.1-0.1-0.1-0.1-0.2c0.5-1.3,1.1-2.6,1.8-3.8c0.3-0.6,0.7-1.2,1-1.8c0.4-0.6,0.8-1.2,1.2-1.7c0.1-0.1,0.2-0.1,0.3,0
				C175.6,121.8,175.6,121.9,175.6,122z"/>
		</g>
		<g>
			<path class="st6" d="M156.3,180.1c-0.8-0.8-1.6-1.8-1.9-3.1c-0.3-1.3,0-2.5,0.5-3.6c0.1-0.2,0.3-0.2,0.4-0.2
				c0.1,0.1,0.2,0.2,0.2,0.3c-0.2,1.1-0.4,2.2-0.2,3.2c0.2,1,0.9,1.9,1.5,2.9c0.1,0.1,0.1,0.3-0.1,0.4
				C156.6,180.3,156.4,180.2,156.3,180.1z"/>
		</g>
		<g>
			<path class="st6" d="M206.3,125.6c0.2-1.1,0.5-2.1,0.8-3.1l0.9-3.1c0.1-0.3,0.4-0.5,0.8-0.4c0.3,0.1,0.5,0.4,0.4,0.8
				c0,0,0,0,0,0.1l0,0l-1.2,3c-0.4,1-0.8,2-1,3l0,0c0,0.2-0.2,0.3-0.4,0.2C206.4,126,206.3,125.8,206.3,125.6z"/>
		</g>
		<g>
			<path class="st6" d="M206.4,120.7l-0.5,1.9c-0.2,0.6-0.3,1.3-0.4,1.9l0,0c-0.1,0.3-0.4,0.5-0.7,0.5c-0.3-0.1-0.5-0.4-0.5-0.7
				c0,0,0-0.1,0-0.1c0.2-0.7,0.5-1.3,0.8-1.9l0.8-1.9c0.1-0.2,0.2-0.2,0.4-0.2C206.3,120.4,206.4,120.5,206.4,120.7L206.4,120.7z"/>
		</g>
		<g>
			<path class="st6" d="M189.7,194.1c-1.1,3.1-2.2,6.1-3.4,9.2c-1.2,3-2.4,6.1-3.3,9.1c-0.9,3-1.2,6.2-0.1,8.9l0.5,1l0.6,1l0.6,0.8
				l0.8,0.7c1.2,0.9,2.5,1.8,3.9,2.5c2.8,1.5,5.8,2.8,8.8,3.9c3,1.2,6.1,2.2,9.2,3.3c6.2,2,12.4,3.9,18.7,5.6
				c3.1,0.9,6.3,1.7,9.4,2.5c3.1,0.8,6.3,1.4,9.4,1.9c1.6,0.2,3.1,0.4,4.7,0.4c1.5,0,3-0.2,4.1-0.7c1.1-0.5,2-1.7,2.7-2.9
				c0.7-1.3,1.3-2.8,1.7-4.3c0.9-3,1.5-6.2,2.3-9.4l2.4-9.5c1.6-6.3,3.3-12.6,5.1-18.9c0-0.2,0.2-0.3,0.4-0.2c0.2,0,0.2,0.2,0.2,0.4
				c-1.2,6.4-2.4,12.8-3.8,19.2l-2,9.6c-0.7,3.1-1.2,6.4-2.1,9.6c-0.5,1.6-1,3.2-1.8,4.8c-0.8,1.6-1.9,3.2-3.8,4.2
				c-1.9,1-3.7,1-5.4,1.1c-1.7,0-3.4-0.1-5.1-0.4c-6.6-0.9-13-2.6-19.3-4.4c-6.3-1.8-12.6-3.7-18.7-5.9c-3.1-1.1-6.2-2.2-9.2-3.5
				c-3-1.2-6.1-2.6-9-4.2c-1.5-0.8-2.9-1.7-4.3-2.8l-1-0.9c-0.3-0.4-0.6-0.8-0.9-1.1l-0.6-1.2c-0.2-0.4-0.4-0.8-0.5-1.2
				c-0.6-1.7-0.8-3.5-0.7-5.3c0.1-1.8,0.5-3.4,1-5c1.1-3.2,2.5-6.1,3.9-9.1c1.3-3,2.7-5.9,4.1-8.9l0,0c0.1-0.2,0.3-0.2,0.4-0.1
				C189.7,193.8,189.7,194,189.7,194.1z"/>
		</g>
		<g>
			<path class="st5" d="M225.6,199c0.5-2.5,1.1-4.9,1.7-7.4c0.6-2.4,1.3-4.9,2-7.3c0.7-2.4,1.5-4.8,2.3-7.2c0.8-2.4,1.7-4.7,2.8-7
				l0.6,0.2c-0.4,2.5-1,5-1.6,7.4c-0.6,2.4-1.3,4.9-2.1,7.3c-0.7,2.4-1.5,4.8-2.4,7.2c-0.8,2.4-1.7,4.7-2.7,7.1L225.6,199z"/>
		</g>
		<path class="st2" d="M214.9,156.9c-1.6,3.9,0.2,8.3,4,9.9c3.9,1.6,8.3-0.2,9.9-4c1.6-3.9-0.2-8.3-4-9.9
			C221,151.3,216.5,153.1,214.9,156.9z"/>
		<path class="st2" d="M217.8,148.5c-0.8,1.9,0.1,4.1,2,4.9c1.9,0.8,4.1-0.1,4.9-2c0.8-1.9-0.1-4.1-2-4.9
			C220.8,145.7,218.6,146.6,217.8,148.5z"/>
		<path class="st2" d="M235.2,144.5c-0.3,0.9,0.2,1.9,1.2,2.2c0.9,0.3,1.9-0.2,2.2-1.2c0.3-0.9-0.2-1.9-1.2-2.2
			C236.5,143,235.5,143.6,235.2,144.5z"/>
		<path class="st2" d="M241.4,186.9c-0.5,1.6,0.4,3.4,2.1,3.9c1.6,0.5,3.4-0.4,3.9-2.1c0.5-1.6-0.4-3.4-2.1-3.9
			C243.7,184.3,241.9,185.2,241.4,186.9z"/>
		<path class="st6" d="M211.8,238.9c-1.6-0.2-3.6,6-2.5,6.6l-0.3,0.8l-21.6-7.8c0,0-7.1-4.4-8.7-5.6c2.2,1.4,6.6-5.1,5.2-6.4
			l12.2,5.7l15.5,5.8L211.8,238.9z"/>
		<path class="st3" d="M296.9,115.7c0,4-5.1,7.6-11.1,6.6c-4.7-0.8-8.1-4-9.2-6.4c0,0,1,2.7-1.3,7.7c0,0,3.6,5.2,10,4.4
			C291.7,127.2,298.1,121.7,296.9,115.7z"/>
		<path class="st0" d="M287.9,128.1c0,0-5,0.6-8.3-1.1c-3.3-1.8-4.3-3.2-4.3-3.2s-3,2.7-5.9,3.3c-2.9,0.6-3.5,2.1-4.2,4.5
			c-0.7,2.4-0.9,4-0.9,4s2.3-4.1,5.6-5.9c3.3-1.8,4.7-2.7,5.3-3.7c0,0,2.9,4.4,6.2,5.4C284.7,132.4,289.2,129.1,287.9,128.1z"/>
		<path class="st3" d="M263.1,146.1c0.1,4.1-2.4,8.1-5.6,7.4c-3-0.7-4.2-4.2-1.3-9.5l-2.1,2.3c0,0-3.1,5.4-2.3,7.4
			c0.8,2.1,1.9,4.9,5.1,4.8c3.2-0.1,6.9-2.5,7-5.2C264.1,150.6,263.1,146.1,263.1,146.1z"/>
		<g>
			<path class="st6" d="M222.5,97.7c0-0.1-0.1-0.1-0.1-0.1c0,0,0,0,0,0l0-0.1l0-0.5c0-0.4,0-0.7,0.1-1.1c0.1-0.7,0.2-1.4,0.3-2.1
				c0.1-0.7,0.3-1.4,0.5-2.1c0.2-0.7,0.4-1.3,0.7-2c1-2.7,2.5-5.2,4.3-7.3c3.7-4.4,9.1-7.3,14.8-8.1c5.7-0.9,11.7,0.4,16.5,3.4
				c1.2,0.8,2.3,1.7,3.4,2.6c1,1,2,2,2.9,3.1c1.7,2.3,3,4.8,3.8,7.5l0,0l-0.5-0.1c0.6-1.2,1.6-2.3,2.7-3.2c1.1-0.8,2.5-1.5,3.9-1.8
				c2.8-0.6,5.9,0.1,8.2,1.8c2.3,1.7,3.9,4.5,4.2,7.3c0.3,2.9-0.7,5.8-2.7,7.7l0,0l-0.2-0.5c4.4-0.2,8.8,2.1,11.3,5.8
				c2.5,3.7,3,8.8,1.1,12.9c-1.8,4.2-5.9,7.3-10.5,7.9c-2.3,0.4-4.6,0-6.7-0.8c-2.1-0.9-3.9-2.4-5.1-4.2l0,0l0.5,0
				c-0.5,0.8-1.2,1.6-2.1,2.2c-0.8,0.6-1.7,1-2.6,1.4c-0.5,0.2-0.9,0.3-1.4,0.5l-0.7,0.2c-0.2,0.1-0.5,0.1-0.6,0.2
				c-0.6,0.2-1.1,0.9-1.5,1.6c-0.8,1.5-1.2,3.4-1.6,5.2c-0.3,1.8-0.5,3.7-0.7,5.6c-0.1,1.9-0.2,3.8-0.1,5.6c0.1,1.9,0.5,3.7,0.4,5.8
				c0,1-0.1,2-0.4,3.1c-0.3,1.1-0.9,2-1.7,2.8c-1.6,1.6-4.1,2.5-6.4,1.9c-1.1-0.2-2.2-0.8-3.1-1.5c-0.9-0.8-1.5-1.8-1.9-2.8
				c-0.4-1.1-0.5-2.2-0.4-3.3c0.1-0.5,0.2-1.1,0.4-1.6c0.2-0.5,0.4-0.9,0.6-1.4c0.9-1.8,1.9-3.4,3-5c0.5-0.8,1.1-1.5,1.6-2.3
				c0.5-0.8,1-1.6,1.4-2.4c1.8-3.3,3.3-6.8,4.2-10.3c0.2-0.9,0.3-1.8,0.2-2.5c0-0.2-0.1-0.3-0.1-0.4c0,0-0.1-0.1-0.2-0.2l-0.2-0.3
				c-0.3-0.4-0.6-0.8-0.9-1.2c-1.1-1.7-1.7-3.7-1.6-5.7l0-0.1l0.5,0.2c-2.5,2-5.6,3.4-8.8,4.1c-3.2,0.7-6.7,0.7-9.9-0.1
				c-3.3-0.7-6.4-2.2-9-4.3c-2.6-2.1-4.7-4.7-6-7.7l0-0.1l0.5,0.1c-1.7,2.1-4.8,3-7.5,2.2c-2.7-0.8-4.9-3.2-5.6-5.9
				c-0.7-2.8,0.2-5.8,2.2-7.7c1-1,2.2-1.7,3.5-2c0.6-0.2,1.3-0.3,2-0.3c0.3,0,0.7,0,1,0.1l0.2,0c0.1,0,0.1,0,0.1,0.1L222.5,97.7z
				 M222.8,98.2c-0.2,0-0.4,0-0.6,0l-0.3,0l-0.2,0c-0.3,0-0.6,0-0.9,0.1c-0.6,0.1-1.2,0.2-1.7,0.4c-1.1,0.4-2,1.1-2.8,2
				c-1.5,1.7-2,4.1-1.4,6.2c0.3,1,0.9,2,1.6,2.8c0.7,0.8,1.7,1.3,2.7,1.7c2,0.7,4.4,0.5,6.5-0.7l0,0c0.2-0.1,0.3,0,0.4,0.1l0,0.1
				c2,2.5,4.2,4.6,6.8,6.3c2.5,1.7,5.3,2.9,8.3,3.6c2.9,0.7,6,0.9,9,0.5c3-0.4,6-1.3,8.8-2.7c0.2-0.1,0.4,0,0.4,0.2c0,0,0,0.1,0,0.1
				l0,0l0,0.1c0.3,1.8,1,3.5,2.1,4.9c0.3,0.4,0.6,0.7,0.9,1l0.2,0.2c0.1,0.1,0.1,0.1,0.3,0.3c0.2,0.3,0.3,0.6,0.4,0.9
				c0.2,1.2,0,2.2-0.2,3.1c-0.4,1.9-1.1,3.7-1.9,5.5c-0.8,1.8-1.7,3.5-2.7,5.1c-1.9,3.3-4.6,6.2-5.8,9.7c-0.1,0.4-0.3,0.9-0.3,1.3
				c-0.1,0.4-0.1,0.8-0.1,1.2c0,0.8,0.3,1.6,0.7,2.2c0.8,1.3,2.1,2.2,3.5,2.5c1.4,0.3,3,0,4.2-0.9c0.6-0.5,1.2-1.1,1.5-1.8
				c0.4-0.7,0.6-1.6,0.7-2.5c0.2-1.8-0.1-3.7-0.2-5.6c-0.1-1.9-0.1-3.8,0-5.8c0.1-1.9,0.2-3.8,0.5-5.8c0.3-1.9,0.7-3.9,1.7-5.7
				c0.5-0.9,1.2-1.9,2.4-2.3c0.3-0.1,0.5-0.2,0.8-0.2l0.7-0.2c0.4-0.1,0.9-0.2,1.3-0.4c1.8-0.5,3.4-1.3,4.7-2.6
				c0.1-0.1,0.3-0.1,0.5,0l0,0l0,0c3.2,2.7,7.1,4,11,3.5c1-0.1,1.9-0.4,2.8-0.7c0.9-0.4,1.8-0.8,2.5-1.4c1.6-1.1,2.9-2.7,3.7-4.5
				c1.7-3.5,1.5-8-0.6-11.4c-1-1.7-2.5-3.2-4.2-4.2c-1.8-1-3.8-1.7-5.8-1.8c-0.2,0-0.3-0.2-0.3-0.3c0-0.1,0-0.1,0-0.2l0,0l0,0
				c1.4-2.1,1.9-4.7,1.5-7.1c-0.4-2.4-1.8-4.6-3.7-6c-1.9-1.4-4.4-2-6.8-1.7c-2.4,0.3-4.7,1.6-6.3,3.6l0,0c-0.1,0.1-0.3,0.2-0.4,0
				c0,0-0.1-0.1-0.1-0.1l0,0c-2-5.1-5.6-9.5-10.3-12.2c-2.3-1.4-4.9-2.3-7.5-2.9c-2.6-0.5-5.3-0.5-8-0.2c-2.6,0.4-5.2,1.2-7.6,2.5
				c-2.4,1.2-4.5,3-6.3,4.9c-1.8,2-3.3,4.3-4.3,6.8c-0.2,0.6-0.5,1.3-0.7,1.9c-0.2,0.6-0.4,1.3-0.6,2c-0.2,0.7-0.3,1.3-0.4,2
				c-0.1,0.3-0.1,0.7-0.1,1l-0.1,0.5l0,0.1c0,0.1,0,0.1,0,0.2C222.9,98,222.9,98.1,222.8,98.2z"/>
		</g>
	</g>
	<g>
		<path class="st2" d="M442.3,149.1c0,0-18.4-32.5-20.5-35.7c-2.2-3.2-4.5-7.1-10.9-5.3c-3.2,0.9-21.5,7.3-25.2,7.6l-2.5-0.3
			l-6.9-11.9l-69,17.9l7.9,27.7l19.8,76.8c0,0,5,25.8,9.8,28.1c4.8,2.4,16.2,4,39.6-4.8c23.4-8.8,43.5-18,45.3-22.7
			c1.9-4.7-2.9-13-4.6-17.1c-1.8-4.2,5-9.5,9.8-14.1c4.8-4.6,19.1-18.2,18.6-23.6C453,166.4,442.3,149.1,442.3,149.1z M441.9,171.1
			c1.1,4.2-15.9,17.4-18.3,19.5c-2.5,2.1-5.5,2.5-7,0.6c-1.5-1.9-25.3-56-27-59.8c-2.8-6.4,3.6-8.1,5.5-8.9
			c1.9-0.8,12.6-4.5,13.9-5.1c1.5-0.8,5,0.1,6.3,2.4c1.3,2.3,17.2,31.3,19,34.8C436.2,158,440.8,166.9,441.9,171.1z"/>
		<path class="st3" d="M334.9,209.3c2.8,14.3,6.5,30.9,8.8,35.4c2.2,4.5,5.9,7.1,22.5,2.9c22.7-5.8,49.9-15.5,53.9-21.7
			c2.3-3.6,3.7-9.6-3.4-24c0,0,3.7,11,3.6,14.5c-0.1,3.1,0.7,7.1-10.6,12.1c-11.3,5.1-52,20.3-59.3,17.8c-7.3-2.5-7.2-8.6-8.8-14.6
			C340,225.6,334.9,209.3,334.9,209.3z"/>
		<path class="st3" d="M386.2,116.7c1.2,2.4,2.2,5,7.1,3.5c5-1.6,15.8-4.4,17.9-4.5l-6.7,3.1l-16.3,7.5L386.2,116.7z"/>
		<path class="st3" d="M410.6,115.8c5.2-0.5,6.5-0.1,9.6,5.2c3.2,5.3,20,36.6,22.3,41c2.3,4.4,6.9,13.5,10.6,12.2
			c0,0-0.8,4.8-8.6,12.1c-7.8,7.3-20.3,18-19.4,21.7l-8-15.3c0,0,5.9-0.5,12.7-6.5c6.8-6,12.3-11.5,12.1-14.6
			c-0.2-3.1-23.5-48.5-25.9-51.2C413.6,117.6,410.6,115.8,410.6,115.8z"/>
		<path class="st4" d="M330,189.2l-10-34.6l66.4-23.2c10.8,27.5,22.6,55.6,29.3,69.6c3.9,8.1,7,14.2,3.3,20.4
			c-2.9,5-18.7,11.3-32.6,16.2c-17.4,6.1-31.7,10.2-37.2,8.4c-5.1-1.8-6.6-10.7-8.5-17.5c-5.5-19.9-12.4-46.4-20.7-73.8"/>
		<path class="st5" d="M415.7,200.9c-6.7-14-18.5-42-29.3-69.6L320,154.6c8.3,27.4,15.2,53.9,20.7,73.8c1.9,6.8,3.4,15.7,8.5,17.5
			c5.5,1.9,19.8-2.3,37.2-8.4c13.9-4.8,29.6-11.2,32.6-16.2C422.7,215.2,419.6,209,415.7,200.9z M409.3,215.2
			c-0.5,0.8-1.5,1.8-2.8,2.7c-0.7,0.5-19.4-45.2-20.3-44.7c-0.8,0.5,16.3,47.1,15.4,47.5c-3.9,1.9-8.7,3.9-13.6,5.7
			c-0.8,0.3-8.9-19.7-9.7-19.4c-0.8,0.3,5.7,20.9,4.9,21.2c-8.9,3.1-16.9,5.6-22.6,6.6c-0.8,0.1-19.8-59.9-20.5-59.8
			c-0.7,0.1,16.9,60.2,16.3,60.3c-1.2,0-2.2-0.1-3-0.4c-4.1-1.4-5.3-8.6-6.8-14c-3.8-13.7-9.7-36.5-15.5-54.9
			c-1.7-5.4-0.5-10.3,7.7-13.2c5.1-1.8,20.5-6.9,31.3-10.9c7.8-2.9,13.3,1,16,7.3c7.7,18,16.3,40.4,20.7,49.7
			C409.7,205.3,412.2,210.2,409.3,215.2z"/>
		<path class="st6" d="M310.3,133.3c4.2,2.8,11.1-0.1,12.8-5.7c0,0,1.2,2.1,4.8,3.3c3.6,1.2,7.5,5.4,7.4,13.1l6.2-2.2
			c0,0-5.8-10.1-3.9-12.3c3.4-3.8,2-7.7,2-7.7s7.8,8.5,19.1,5.4c10.4-2.8,13.4-13.5,13.4-13.5s3.9,3.7,10.7,1.1l-4.5-11.1L308.2,126
			L310.3,133.3z"/>
		<path class="st2" d="M343.2,159.5c-2,0.5-4.3,0-5.8-1.5c-0.8-0.7-1.3-1.6-1.7-2.5c-0.3-0.8-0.5-1.8-0.5-2.9
			c-0.1-1.3,0-2.5,0.1-3.8c0-0.7,0.1-1.3,0.1-2c0-1.6-0.1-3.4-0.3-5.7c-0.2-2.1-0.5-3.9-0.9-5.6c-0.4-1.8-0.9-3.7-1.8-5.3
			c-0.5-0.9-1.2-1.6-1.9-1.8l-0.3-0.1l-1.1-0.3c-0.1,0-0.3-0.1-0.4-0.1c-0.3-0.1-0.6-0.2-0.9-0.3c-0.9-0.3-1.8-0.7-2.6-1.2
			c-0.6-0.4-1.2-1-1.8-1.6l-0.5-0.6l-0.4,0.7c-0.5,0.8-1.1,1.5-1.8,2.1c-0.8,0.7-1.7,1.3-2.7,1.8l-0.7,0.3l-0.8,0.3l-0.1,0
			c-0.3,0.1-0.7,0.2-1,0.2c-0.2,0-0.3,0.1-0.5,0.1c-0.2,0-0.3,0.1-0.5,0.1c-0.1,0-0.2,0-0.3,0c-0.1,0-0.2,0-0.3,0
			c-0.2,0-0.3,0-0.5,0c-0.2,0-0.3,0-0.5,0c-0.4,0-0.8,0-1.1-0.1l-0.9-0.1l-0.8-0.2c-0.4-0.1-0.7-0.2-1-0.3c-0.2-0.1-0.4-0.1-0.6-0.2
			c-0.9-0.3-1.9-0.8-2.8-1.5c-0.8-0.5-1.6-1.2-2.4-2.2c-0.1-0.1-0.2-0.2-0.2-0.3c-0.3-0.3-0.5-0.6-0.7-1l-0.2-0.3
			c-0.1-0.1-0.2-0.3-0.3-0.5l-0.6-1.1c0,0-0.5-1.2-0.5-1.2s-0.2-0.8-0.2-0.9c0-0.2-0.1-0.3-0.1-0.5c0-0.2-0.1-0.3-0.1-0.5
			c-0.1-0.4-0.1-0.7-0.1-1.1l-0.1-0.9l0-0.8c0-0.4,0-0.7,0.1-1.1c0-0.2,0-0.3,0.1-0.5l0-0.1c0.1-0.5,0.2-0.9,0.3-1.4l0-0.1
			c0.2-0.5,0.3-1,0.5-1.4c0.2-0.5,0.4-0.9,0.7-1.3l0.1-0.2c0.3-0.4,0.6-0.8,0.9-1.3c0.1-0.1,0.2-0.2,0.3-0.3
			c0.3-0.3,0.5-0.6,0.8-0.8c0.8-0.8,1.7-1.4,2.6-1.9l0.2-0.1c0.4-0.2,0.8-0.4,1.2-0.6l1-0.4l0.5-0.1c0.8-0.2,1.6-0.3,2.5-0.4
			l1.3-0.1l-1-1c-0.1-0.1-0.1-0.1-0.2-0.2l-0.2-0.2c-0.1-0.2-0.3-0.4-0.4-0.5l-0.1-0.2c-0.1-0.2-0.3-0.4-0.3-0.6l-0.3-0.7
			c0,0,0-0.1,0-0.1l0-0.1c-0.2-0.6-0.4-1.2-0.5-1.9c-0.1-0.6-0.1-1.3-0.1-2c0-0.8,0.2-1.4,0.3-2l0-0.1c0.1-0.3,0.2-0.6,0.3-0.9
			c0.1-0.3,0.2-0.6,0.4-0.9l0.3-0.5l0.3-0.4c0.2-0.3,0.3-0.5,0.6-0.8c0.2-0.3,0.4-0.5,0.7-0.8c0.2-0.2,0.4-0.4,0.7-0.6l0.1-0.1
			c0.5-0.4,1.1-0.8,1.7-1.1c0.2-0.1,0.4-0.2,0.6-0.3c0.1,0,0.2-0.1,0.3-0.1l0.3-0.1l0.7-0.2c0.2-0.1,0.5-0.1,0.7-0.2l0.2,0
			c0.1,0,0.2,0,0.4,0c0.2,0,0.4-0.1,0.6-0.1c0.7,0,1.4,0,2,0.1c0.7,0.1,1.3,0.3,1.9,0.6c0.7,0.3,1.3,0.6,1.8,0.9
			c0.6,0.4,1.1,0.8,1.5,1.3c0.3,0.3,0.5,0.6,0.8,1.1l0.7,1.1l0.3-1.2c0.3-1.1,0.7-2.2,1.2-3.3c0.6-1.3,1.3-2.5,2.1-3.6
			c0.8-1.1,1.7-2.2,2.7-3.2c1.1-1,2.1-1.9,3.2-2.7c1.3-0.9,2.5-1.5,3.7-2.1c0.3-0.1,0.5-0.2,0.7-0.3l1-0.4c0.1,0,0.2-0.1,0.2-0.1
			l2.1-0.6c0.4-0.1,0.9-0.2,1.3-0.3c0.2,0,0.5-0.1,0.7-0.1c0.3-0.1,0.7-0.1,1-0.1l1.1-0.1c0.5-0.1,1.1-0.1,1.6-0.1l0.8,0
			c0.2,0,0.5,0,0.7,0l2.1,0.2c0.2,0,0.4,0.1,0.6,0.1c0.1,0,0.3,0.1,0.4,0.1c0.2,0,0.4,0.1,0.6,0.1c0.5,0.1,1,0.2,1.4,0.4l1.1,0.4
			c0.3,0.1,0.6,0.2,0.9,0.3c0.2,0.1,0.5,0.2,0.7,0.3c0.4,0.2,0.8,0.4,1.2,0.6l1.9,1l1.7,1.2c0.3,0.3,0.7,0.5,1,0.9
			c0.2,0.2,0.4,0.3,0.6,0.5c0.3,0.2,0.5,0.5,0.7,0.7l0.8,0.8c0.4,0.4,0.7,0.8,1,1.2c0.1,0.1,0.5,0.6,0.6,0.7
			c0.1,0.2,0.3,0.3,0.4,0.5l1.1,1.8c0.1,0.2,0.2,0.4,0.3,0.6c0.1,0.1,0.1,0.2,0.2,0.4l0.5,0.9l0.2,0.5l0.2,0.5
			c0.1,0.2,0.2,0.5,0.3,0.7c0.2,0.4,0.3,0.8,0.5,1.3c0,0.2,0.1,0.4,0.2,0.6c0.1,0.5,0.3,0.9,0.3,1.4c0.3,1.3,0.4,2.6,0.5,3.8l0,0.7
			l0.7-0.2c0.5-0.1,1-0.2,1.5-0.2c0.7,0,1.3,0,1.8,0.2c0.6,0.1,1.2,0.3,1.8,0.6c0.6,0.3,1.2,0.7,1.6,1.1c0.5,0.4,0.9,0.9,1.2,1.4
			c0.2,0.3,0.3,0.6,0.5,0.9l0.2,0.4c0.1,0.1,0.1,0.2,0.1,0.3c0,0.1,0,0.1,0.1,0.2c0.2,0.6,0.3,1.4,0.4,1.9c0,0.5,0,1.2-0.1,1.9
			c-0.1,0.6-0.3,1.3-0.6,1.9c-0.3,0.6-0.7,1.1-1.1,1.6c-0.5,0.5-1,1-1.5,1.3l-0.1,0.1c-0.1,0.1-0.2,0.1-0.3,0.2l-0.5,0.2l-0.2,0.1
			l-0.7,0.3l-0.9,0.2c-0.2,0-0.4,0.1-0.6,0.1c-0.1,0-0.2,0-0.3,0c-0.3,0-0.6,0-0.9,0l-0.1,0c-0.2,0-0.4-0.1-0.6-0.1
			c-0.1,0-0.2,0-0.3-0.1c-0.2,0-0.4-0.1-0.6-0.2c-0.1,0-0.2-0.1-0.3-0.1c-0.3-0.1-0.5-0.3-0.8-0.4c-0.2-0.2-0.5-0.3-0.8-0.5
			c-0.1-0.1-0.2-0.2-0.3-0.3l-0.7-0.7l-0.4,0.9c-0.3,0.6-0.5,1.1-0.8,1.7l-0.7,1.1c-0.2,0.3-0.4,0.6-0.6,0.9
			c-0.2,0.2-0.3,0.4-0.5,0.6c-0.3,0.5-0.7,0.9-1.1,1.3l-0.9,0.9c-0.2,0.2-0.4,0.3-0.5,0.5c-0.1,0.1-0.2,0.2-0.3,0.3
			c-0.2,0.2-0.4,0.3-0.6,0.5l-0.3,0.3c-0.2,0.1-0.4,0.3-0.6,0.4c0,0-0.6,0.4-0.7,0.5c-0.2,0.1-0.4,0.3-0.7,0.4l-1.1,0.6
			c-0.1,0.1-0.3,0.1-0.4,0.2c-0.2,0.1-0.5,0.3-0.7,0.3l-1.7,0.7l-0.3,0.1l-1.9,0.5c-0.3,0.1-0.5,0.1-0.8,0.2l-1.2,0.2
			c-0.4,0.1-0.8,0.1-1.2,0.2c-0.2,0-0.5,0-0.7,0c-0.2,0-0.3,0-0.5,0c-0.2,0-0.4,0-0.6,0c-0.6,0-1.2,0.1-1.8,0l-1.8-0.2l-0.6-0.1
			c-0.2-0.1-0.5-0.1-0.8-0.1c-0.6-0.1-1.1-0.2-1.6-0.4l-1.2-0.4c-0.1,0-0.2-0.1-0.4-0.1c-0.2-0.1-0.5-0.2-0.7-0.3
			c-0.3-0.1-0.5-0.2-0.8-0.4c-0.5-0.2-1-0.4-1.4-0.7c-0.3-0.2-0.6-0.4-1-0.6l-0.5-0.3l-0.4,0.1l-0.6,0.2l0,0.4c0,0.7-0.1,1.3-0.2,2
			c-0.2,0.9-0.6,1.7-1.1,2.6c-0.1,0.1-0.1,0.2-0.2,0.3c-0.2,0.3-0.4,0.6-0.6,0.8l-0.2,0.2c-0.1,0.1-0.2,0.2-0.3,0.4
			c-0.1,0.2-0.2,0.4-0.2,0.6c-0.1,0.7,0,1.6,0.3,2.8c0.5,1.9,1.3,3.9,2,5.3c0.8,1.7,1.7,3.4,2.7,5c0.5,0.9,1.1,1.7,1.6,2.4
			c0.3,0.4,0.6,0.8,0.9,1.2c0.3,0.4,0.6,0.7,0.8,1.1c0.2,0.2,0.3,0.4,0.4,0.6c0.4,0.6,0.9,1.1,1.2,1.7l0.8,1.2
			c0.2,0.4,0.5,0.8,0.7,1.3c0.1,0.3,0.3,0.5,0.4,0.8l0.2,0.5c0.2,0.5,0.3,1,0.4,1.4c0.2,1,0.1,2.1-0.2,3c-0.3,1-0.9,1.9-1.6,2.6
			l-0.2,0.2c-0.1,0.1-0.3,0.3-0.4,0.3c-0.3,0.2-0.5,0.3-0.7,0.5l-0.1,0.1c-0.1,0-0.2,0.1-0.2,0.1l-0.5,0.2l-0.1,0L343.2,159.5z"/>
		<path class="st3" d="M321.3,117.1c0.2,4.1,3.9,7.7,7.3,6.2c2.7-1.2-0.4-5.9-0.4-8.8c0,0,4.4,3.2,10,1.4c4.1-1.3,5.7-4.2,6-6.3
			c0,0,0.4,3.7-0.6,5.4c-1,1.6,8.3,5.9,20.3-0.2c4.4-2.2,7.5-7.9,7.5-7.9s2.7,2.3,7.4,0.5c4.8-1.8,4.2-5.4,4.3-6.1
			c0,0,1.7,7.5-3.5,9.5c-5.2,2-7.7-0.4-7.7-0.4s-7.1,10.6-15.3,12.4c-8.2,1.7-17.7-2.9-17.7-2.9s-1.8,6.4-3.5,7.6
			c-1.7,1.2,1.1,5.4,1.1,5.4s-2.3-1.2-2.7,0.9c0,0-4.1-3.4-6.4-4.8c-2.3-1.4-4.6-2.8-4.6-2.8s-2.9,4.1-6.7,4.8
			c-3.8,0.7-10.7-3.3-12.8-5.7c-2.1-2.4-3.4-6-2.5-7.7c0,0-0.9,4.9,4.5,7.5C310.8,127.7,319.2,124.1,321.3,117.1z"/>
		<g>
			<path class="st6" d="M381.5,109.7c1.4,3.4,2.8,6.7,4.2,10.1c1.4,3.4,2.9,6.7,4.3,10c3,6.7,6,13.3,9,19.9
				c6.1,13.3,12.3,26.4,18.6,39.6c1.6,3.3,3.1,6.6,4.7,9.9l4.5,9.9l2.4,4.9c0.8,1.7,1.6,3.4,2.1,5.4c0.5,2,0.7,4.3,0.2,6.4
				c-0.3,1.1-0.7,2.1-1.2,3c-0.2,0.4-0.6,1.1-1,1.5c-0.2,0.2-0.4,0.4-0.6,0.6c-0.2,0.2-0.4,0.4-0.6,0.6c-1.5,1.4-3.1,2.4-4.8,3.4
				c-1.6,1-3.3,1.9-4.9,2.7c-3.3,1.7-6.7,3.2-10,4.7c-6.8,2.9-13.6,5.5-20.6,7.9c-7,2.3-14,4.5-21.2,6.2c-3.6,0.8-7.3,1.6-11,2
				c-1.9,0.2-3.8,0.3-5.9,0.1c-0.5-0.1-1.1-0.1-1.6-0.3c-0.5-0.1-1.2-0.3-1.6-0.6c-1-0.4-1.9-1-2.8-1.7c-1.7-1.4-3-3.1-3.9-5
				c-0.9-1.8-1.5-3.7-2-5.5c-0.5-1.8-0.9-3.6-1.4-5.4c-0.4-1.7-0.9-3.5-1.4-5.3c-1.9-7.1-3.6-14.2-5.3-21.3
				c-3.4-14.2-6.7-28.4-10.3-42.6c-1.7-7.1-3.5-14.2-5.4-21.2c-0.9-3.5-1.9-7-2.9-10.5c-1-3.5-2-7-3-10.5l0,0
				c-0.1-0.3,0.1-0.7,0.4-0.8c0.3-0.1,0.6,0.1,0.7,0.4c4.8,13.8,8.9,27.9,12.8,41.9c3.9,14.1,7.5,28.3,11.1,42.4
				c1.8,7.1,3.6,14.1,5.6,21.1c0.5,1.7,1,3.5,1.5,5.3c0.5,1.8,0.9,3.5,1.4,5.2c1,3.4,2.3,6.5,4.6,8.3c0.6,0.4,1.2,0.8,1.9,1.1
				c0.4,0.2,0.6,0.2,1,0.3c0.3,0.1,0.7,0.1,1.1,0.2c1.6,0.2,3.3,0,5-0.1c3.5-0.4,7-1.1,10.5-1.9c7-1.7,13.9-3.8,20.8-6.2
				c6.9-2.3,13.7-4.9,20.3-7.7c3.3-1.4,6.6-2.9,9.8-4.5c1.6-0.8,3.2-1.7,4.7-2.6c1.5-0.9,3-1.9,4.1-2.9c0.3-0.3,0.6-0.5,0.8-0.8
				c0.3-0.3,0.3-0.4,0.5-0.8c0.4-0.7,0.7-1.4,0.8-2.1c0.4-1.4,0.3-2.9-0.1-4.4c-0.8-3.1-2.7-6.3-4.2-9.7l-9-20
				c-6-13.3-12-26.6-17.8-40c-5.7-13.5-11.3-27-16.2-40.8c-0.1-0.3,0.1-0.7,0.4-0.8C381.1,109.2,381.4,109.4,381.5,109.7z"/>
		</g>
		<g>
			<path class="st6" d="M424.1,206.4c0.2-0.6,0.4-0.9,0.7-1.3c0.2-0.4,0.4-0.7,0.7-1.1c0.5-0.7,1-1.4,1.5-2c0.5-0.6,1.1-1.2,1.6-1.8
				l1.7-1.7l6.9-6.7c2.3-2.2,4.6-4.4,6.8-6.7c1.1-1.1,2.2-2.3,3.3-3.4c1.1-1.2,2.1-2.3,3-3.6c0.9-1.2,1.5-2.6,1.8-4
				c0.3-1.4,0.3-2.9,0-4.3c-0.6-2.9-2.6-5.4-4.1-8.3l-9.4-16.7l-9.5-16.7l-4.8-8.3c-0.8-1.4-1.6-2.8-2.4-4.1c-0.9-1.3-1.7-2.7-2.6-4
				c-0.9-1.3-1.8-2.4-2.9-2.8c-0.6-0.2-1.2-0.3-1.9-0.3l-0.5,0c-0.2,0-0.3,0-0.5,0c-0.3,0-0.7,0.1-1.1,0.2c-3,0.6-6.1,1.5-9.1,2.4
				c-6.1,1.8-12.2,3.8-18.2,5.8l0,0c-0.7,0.2-1.4-0.1-1.6-0.8c-0.2-0.7,0.1-1.4,0.8-1.6l0,0c6.1-2.1,12.2-4,18.3-5.8
				c3.1-0.9,6.1-1.8,9.4-2.5c0.4-0.1,0.8-0.2,1.3-0.2c0.2,0,0.5,0,0.7-0.1l0.7,0c0.9,0,1.8,0.1,2.8,0.5c0.9,0.4,1.7,1,2.3,1.7
				c0.6,0.7,1.1,1.4,1.6,2c0.9,1.4,1.7,2.7,2.6,4.1c0.9,1.4,1.7,2.8,2.5,4.1l4.8,8.3l9.4,16.7l9.4,16.7c0.8,1.4,1.6,2.7,2.4,4.2
				c0.8,1.5,1.5,3,1.8,4.7c0.4,1.7,0.3,3.5-0.1,5.2c-0.4,1.7-1.2,3.2-2.2,4.6c-1,1.4-2.1,2.6-3.2,3.8c-1.1,1.2-2.2,2.3-3.4,3.5
				c-2.3,2.3-4.6,4.5-6.9,6.7l-6.9,6.6c-1.1,1.1-2.3,2.2-3.3,3.3c-0.5,0.6-1,1.2-1.5,1.8c-0.2,0.3-0.4,0.6-0.6,1
				c-0.2,0.3-0.3,0.7-0.3,0.9c0.1,0.5-0.3,0.9-0.8,1c-0.5,0.1-0.9-0.3-1-0.8c0-0.2,0-0.3,0.1-0.5L424.1,206.4z"/>
		</g>
		<g>
			<path class="st6" d="M387.5,128.7c-0.1-1.5,0.5-3.1,1.6-4.3c1.1-1.2,2.4-1.9,3.6-2.5c1.2-0.6,2.5-1,3.6-1.5l3.6-1.4
				c2.4-0.9,4.9-1.8,7.5-2.5c1.3-0.3,2.6-0.6,4.1-0.7c0.8,0,1.6,0,2.5,0.4l0.3,0.1c0.1,0.1,0.4,0.3,0.5,0.3c0.2,0.2,0.4,0.4,0.5,0.5
				c0.3,0.3,0.5,0.6,0.7,0.9c1.6,2.2,2.8,4.4,4.2,6.7c1.3,2.2,2.6,4.5,3.8,6.7c2.5,4.5,4.9,9.1,7.3,13.6l7.1,13.7l3.6,6.9
				c0.6,1.2,1.1,2.5,1.4,4c0.3,1.5,0.1,3.4-0.7,4.8c-0.8,1.4-1.8,2.4-2.7,3.4c-0.9,0.9-1.9,1.8-2.8,2.7c-1.9,1.8-3.8,3.5-5.7,5.2
				c-1.9,1.7-3.9,3.4-5.9,5l-1.5,1.2c-0.6,0.4-1.2,0.8-1.9,1.1c-0.7,0.3-1.5,0.5-2.3,0.6c-0.4,0-0.8,0-1.2-0.1
				c-0.2,0-0.4-0.1-0.6-0.2c-0.2-0.1-0.4-0.1-0.7-0.3c-0.5-0.3-0.7-1-0.4-1.5c0.3-0.5,1-0.7,1.5-0.4c0,0,0.1,0,0.2,0.1
				c0.1,0,0.2,0,0.3,0.1c0.2,0,0.5,0,0.7,0c0.5-0.1,0.9-0.2,1.4-0.4c0.5-0.2,0.9-0.6,1.3-0.9l1.4-1.2c1.9-1.7,3.8-3.4,5.6-5.2
				l5.5-5.3c0.9-0.9,1.8-1.8,2.7-2.7c0.9-0.9,1.7-1.8,2.1-2.6c0.5-0.9,0.5-1.7,0.4-2.7c-0.2-1-0.6-2.1-1.2-3.2l-3.5-6.8l-7.1-13.7
				l-7.2-13.6c-1.2-2.3-2.4-4.5-3.7-6.7c-1.3-2.2-2.5-4.5-3.9-6.4c-0.3-0.5-0.8-1-0.6-0.8c-0.3-0.1-0.8-0.2-1.3-0.2
				c-1.1,0-2.3,0.3-3.5,0.6c-2.4,0.6-4.8,1.5-7.2,2.4l-3.6,1.4c-1.2,0.5-2.4,0.9-3.5,1.4c-1.1,0.5-2.1,1.1-2.8,1.8
				c-0.7,0.7-1.2,1.5-1.5,2.6l0,0.1c-0.2,0.6-0.8,0.9-1.3,0.7C387.8,129.5,387.5,129.1,387.5,128.7z"/>
		</g>
		<g>
			<path class="st6" d="M344.2,108.6c1,2.1,1,4.6,0.1,6.8c-0.9,2.2-2.9,4-5.2,4.8c-2.3,0.8-4.9,0.6-7-0.5c-2.1-1.1-3.7-3.1-4.2-5.4
				c0-0.2,0.1-0.3,0.2-0.4c0.1,0,0.3,0,0.3,0.2c0.9,1.9,2.5,3.4,4.3,4.2c1.8,0.8,3.9,0.9,5.7,0.2c1.8-0.6,3.4-2,4.4-3.7
				c0.9-1.7,1.2-3.9,0.8-5.9c0-0.2,0.1-0.3,0.2-0.4C344,108.4,344.1,108.5,344.2,108.6z"/>
		</g>
		<path class="st6" d="M385.6,115.8c0,0,3.1,5,3.7,10.5l-1.2,1.4l-4.5-11.2L385.6,115.8z"/>
		<path class="st6" d="M420,192.4c0,0,5.7,11,7.4,10.3l-3.6,4.3l-6.8-14.3L420,192.4z"/>
		<g>
			<path class="st6" d="M410.4,110.1c1.2-0.4,2.4-0.7,3.7-0.7c0.6,0,1.3,0,2,0.3c0.3,0.1,0.7,0.3,1,0.6c0.3,0.2,0.5,0.5,0.7,0.7
				c0.8,1,1.5,2,2.2,3c0.7,1,1.3,2.1,1.8,3.3c0.1,0.1,0,0.2-0.1,0.3c-0.1,0-0.2,0-0.3-0.1l-2.2-2.9c-0.7-1-1.5-1.9-2.3-2.8
				c-0.2-0.2-0.4-0.4-0.6-0.6c-0.2-0.2-0.3-0.2-0.6-0.3c-0.5-0.2-1.1-0.2-1.6-0.3c-1.2-0.1-2.4,0-3.6,0c-0.1,0-0.2-0.1-0.2-0.2
				C410.3,110.3,410.3,110.2,410.4,110.1z"/>
		</g>
		<g>
			<path class="st6" d="M442.6,178.1c-1.5,1.9-3,3.6-4.6,5.4c-1.6,1.7-3.2,3.5-4.9,5.1c-1.7,1.7-3.4,3.3-5.1,5
				c-0.9,0.8-1.8,1.6-2.7,2.4c-0.5,0.4-1,0.8-1.5,1.1c-0.3,0.2-0.6,0.4-0.9,0.5c-0.2,0.1-0.4,0.2-0.6,0.2c-0.1,0-0.3,0.1-0.5,0.1
				c-0.2,0-0.6,0-0.9-0.3c-0.6-0.4-0.7-1.2-0.3-1.8s1.2-0.7,1.8-0.3c-0.2-0.2-0.4-0.2-0.5-0.2c-0.1,0-0.1,0-0.1,0c0,0,0.1,0,0.2-0.1
				c0.2-0.1,0.4-0.2,0.6-0.3c0.5-0.3,0.9-0.6,1.4-0.9c0.9-0.7,1.9-1.4,2.8-2.1c1.8-1.5,3.6-3,5.4-4.5c1.8-1.6,3.5-3.1,5.2-4.8
				c1.7-1.6,3.4-3.3,4.9-5l0,0c0.1-0.1,0.3-0.1,0.4,0C442.7,177.8,442.7,178,442.6,178.1z"/>
		</g>
		<g>
			<path class="st6" d="M422.8,119c0.5,0.5,0.9,1.1,1.3,1.7c0.4,0.6,0.8,1.2,1.1,1.8c0.7,1.2,1.4,2.5,1.9,3.8c0,0.1,0,0.2-0.1,0.2
				c-0.1,0-0.2,0-0.2-0.1c-0.9-1.1-1.6-2.3-2.4-3.5c-0.4-0.6-0.7-1.2-1-1.8c-0.3-0.6-0.6-1.3-0.9-1.9c0-0.1,0-0.2,0.1-0.2
				C422.6,118.9,422.7,118.9,422.8,119z"/>
		</g>
		<g>
			<path class="st6" d="M443.5,176.1c0.6-1,1.2-1.9,1.4-2.9c0.2-1,0-2.1-0.3-3.2c0-0.2,0.1-0.3,0.2-0.4c0.1,0,0.3,0,0.4,0.2
				c0.5,1.1,0.9,2.3,0.6,3.6c-0.3,1.3-1,2.3-1.8,3.1c-0.1,0.1-0.3,0.1-0.4,0C443.4,176.4,443.4,176.2,443.5,176.1z"/>
		</g>
		<g>
			<path class="st6" d="M391.3,124.2c-0.3-1-0.7-2-1.2-2.9l-1.3-2.9l0,0c-0.1-0.3,0-0.7,0.3-0.8c0.3-0.1,0.7,0,0.8,0.3
				c0,0,0,0,0,0.1l1,3c0.3,1,0.6,2,0.9,3.1c0,0.2-0.1,0.3-0.2,0.4C391.5,124.4,391.3,124.3,391.3,124.2L391.3,124.2z"/>
		</g>
		<g>
			<path class="st6" d="M392.2,118.8l0.9,1.8c0.3,0.6,0.6,1.2,0.8,1.9c0.1,0.3,0,0.7-0.4,0.8c-0.3,0.1-0.7,0-0.8-0.4
				c0,0,0-0.1,0-0.1l0,0c-0.1-0.6-0.3-1.3-0.5-1.9l-0.6-1.9l0,0c-0.1-0.2,0-0.3,0.2-0.4C391.9,118.6,392.1,118.7,392.2,118.8z"/>
		</g>
		<g>
			<path class="st6" d="M411.7,191.6c1.5,2.9,3,5.8,4.4,8.7c1.5,2.9,3,5.8,4.2,8.9c0.6,1.6,1.1,3.2,1.2,5c0.2,1.7,0.1,3.6-0.5,5.3
				c-0.2,0.4-0.3,0.8-0.5,1.3l-0.6,1.2c-0.3,0.4-0.6,0.8-0.8,1.2l-0.9,1c-1.3,1.2-2.7,2.2-4.1,3c-2.9,1.8-5.8,3.2-8.8,4.6
				c-3,1.4-6,2.6-9.1,3.8c-6.1,2.4-12.3,4.6-18.5,6.6c-6.2,2-12.5,4-19.1,5.1c-1.7,0.3-3.3,0.5-5.1,0.6c-1.7,0-3.6,0-5.5-0.9
				c-1.9-0.9-3.1-2.5-3.9-4c-0.9-1.6-1.5-3.2-2-4.8c-1-3.2-1.7-6.4-2.5-9.5l-2.4-9.5c-1.6-6.3-3.1-12.7-4.5-19.1
				c0-0.2,0.1-0.3,0.2-0.4c0.2,0,0.3,0.1,0.4,0.2c2,6.2,3.9,12.5,5.8,18.7l2.8,9.4c0.9,3.2,1.7,6.3,2.7,9.3c0.5,1.5,1.1,2.9,1.9,4.2
				c0.8,1.3,1.7,2.4,2.8,2.8c1.1,0.5,2.6,0.6,4.1,0.5c1.5-0.1,3.1-0.3,4.7-0.6c3.1-0.6,6.3-1.4,9.4-2.2c3.1-0.9,6.2-1.8,9.3-2.8
				c6.2-2,12.4-4.1,18.4-6.4c3-1.1,6.1-2.3,9-3.6c3-1.3,5.9-2.7,8.6-4.3c1.4-0.8,2.7-1.7,3.8-2.7l0.8-0.8l0.6-0.8l0.5-1l0.4-1
				c1-2.8,0.6-5.9-0.4-8.9c-1-3-2.4-6-3.7-9c-1.3-3-2.5-6-3.7-9.1c-0.1-0.2,0-0.3,0.2-0.4C411.5,191.3,411.7,191.4,411.7,191.6
				L411.7,191.6z"/>
		</g>
		<g>
			<path class="st5" d="M374.9,198.3c-1.1-2.3-2.1-4.6-3-6.9c-0.9-2.3-1.8-4.7-2.7-7.1c-0.8-2.4-1.6-4.8-2.4-7.2
				c-0.7-2.4-1.4-4.8-1.9-7.3l0.6-0.2c1.1,2.3,2.1,4.6,3,6.9c0.9,2.3,1.8,4.7,2.6,7.1c0.8,2.4,1.6,4.8,2.3,7.2
				c0.7,2.4,1.4,4.8,2,7.3L374.9,198.3z"/>
		</g>
		<path class="st2" d="M384.5,155.6c1.8,3.8,0.2,8.3-3.6,10.1c-3.8,1.8-8.3,0.2-10.1-3.6c-1.8-3.8-0.2-8.3,3.6-10.1
			C378.2,150.2,382.7,151.8,384.5,155.6z"/>
		<path class="st2" d="M381.3,147.3c0.9,1.9,0.1,4.1-1.8,5c-1.9,0.9-4.1,0.1-5-1.8c-0.9-1.9-0.1-4.1,1.8-5
			C378.2,144.6,380.4,145.4,381.3,147.3z"/>
		<path class="st2" d="M363.7,144c0.3,0.9-0.2,2-1.1,2.3c-0.9,0.3-2-0.2-2.3-1.1c-0.3-0.9,0.2-2,1.1-2.3
			C362.4,142.6,363.4,143.1,363.7,144z"/>
		<path class="st2" d="M359.2,186.6c0.6,1.6-0.3,3.4-1.9,4c-1.6,0.6-3.4-0.3-4-1.9c-0.6-1.6,0.3-3.4,1.9-4
			C356.8,184.1,358.6,185,359.2,186.6z"/>
		<path class="st6" d="M390.9,237.4c1.6-0.3,3.9,5.8,2.7,6.5l0.3,0.8l21.3-8.7c0,0,7-4.7,8.5-5.9c-2.1,1.5-6.8-4.9-5.4-6.2l-12,6.2
			l-15.2,6.4L390.9,237.4z"/>
		<path class="st3" d="M301,117.7c0.2,4,5.4,7.3,11.4,6.1c4.6-0.9,7.9-4.3,9-6.7c0,0-0.9,2.8,1.6,7.7c0,0-3.4,5.4-9.8,4.8
			C306.6,129,299.9,123.7,301,117.7z"/>
		<path class="st0" d="M310.4,129.7c0,0,5,0.4,8.2-1.5c3.2-1.9,4.2-3.3,4.2-3.3s3.1,2.5,6.1,3c3,0.5,3.6,1.9,4.4,4.3
			c0.8,2.4,1,4,1,4s-2.5-4-5.8-5.7c-3.3-1.7-4.8-2.6-5.5-3.5c0,0-2.7,4.5-6,5.7C313.8,133.9,309.2,130.7,310.4,129.7z"/>
		<path class="st3" d="M335.9,146.7c0.1,4.1,2.8,8,5.9,7.2c2.9-0.8,4-4.4,1-9.6l2.2,2.2c0,0,3.3,5.3,2.6,7.3c-0.7,2.1-1.7,5-4.9,5
			c-3.2,0.1-7-2.2-7.2-4.9C335.1,151.3,335.9,146.7,335.9,146.7z"/>
		<g>
			<path class="st6" d="M374.2,97.3c0-0.1-0.1-0.2-0.1-0.4c0-0.1,0-0.1,0-0.2l0-0.1L374,96c-0.1-0.3-0.1-0.7-0.2-1
				c-0.1-0.7-0.3-1.3-0.5-2c-0.2-0.7-0.4-1.3-0.6-1.9c-0.3-0.6-0.5-1.2-0.8-1.9c-1.2-2.4-2.7-4.7-4.6-6.6c-1.9-1.9-4.1-3.5-6.5-4.7
				c-2.4-1.2-5-1.9-7.7-2.2c-2.7-0.3-5.4-0.1-8,0.5c-2.6,0.6-5.1,1.7-7.4,3.1c-4.5,2.9-8,7.4-9.8,12.6l0,0c-0.1,0.2-0.2,0.2-0.4,0.2
				c0,0-0.1,0-0.1-0.1l0,0c-1.7-1.9-4.1-3.1-6.5-3.3c-2.4-0.2-4.9,0.5-6.7,2c-1.9,1.5-3.1,3.7-3.5,6.1c-0.3,2.4,0.3,5,1.8,7.1l0,0
				l0,0c0.1,0.1,0.1,0.3-0.1,0.4c0,0-0.1,0.1-0.2,0.1c-2.1,0.2-4,0.9-5.8,2c-1.7,1.1-3.1,2.6-4.1,4.4c-2,3.5-2,7.9-0.1,11.4
				c0.9,1.7,2.2,3.3,3.9,4.3c0.8,0.6,1.7,1,2.6,1.3c0.9,0.3,1.9,0.6,2.9,0.6c3.9,0.4,7.8-1.1,10.9-3.9l0,0l0,0
				c0.1-0.1,0.3-0.1,0.5,0c1.3,1.3,3,2,4.8,2.4c0.4,0.1,0.9,0.2,1.3,0.3l0.7,0.1c0.2,0,0.4,0.1,0.8,0.2c1.2,0.4,2,1.4,2.5,2.2
				c1,1.8,1.5,3.7,1.9,5.6c0.4,1.9,0.6,3.8,0.7,5.7c0.1,1.9,0.2,3.8,0.2,5.8c0,1.9-0.3,3.8,0,5.6c0.1,0.9,0.4,1.7,0.8,2.5
				c0.4,0.7,0.9,1.3,1.6,1.7c1.3,0.9,2.9,1.1,4.3,0.7c1.4-0.4,2.7-1.3,3.4-2.7c0.4-0.7,0.6-1.5,0.6-2.3c0-0.4,0-0.8-0.1-1.2
				c-0.1-0.4-0.2-0.9-0.4-1.3c-1.3-3.4-4.2-6.2-6.2-9.4c-1-1.6-2-3.3-2.9-5c-0.9-1.7-1.6-3.5-2.2-5.4c-0.2-1-0.5-1.9-0.3-3.1
				c0.1-0.3,0.2-0.6,0.4-0.9c0.1-0.2,0.2-0.3,0.3-0.3l0.2-0.3c0.3-0.3,0.6-0.7,0.8-1.1c1-1.5,1.7-3.2,1.9-5l0-0.1l0,0
				c0-0.2,0.2-0.3,0.4-0.3c0,0,0.1,0,0.1,0c2.9,1.3,5.9,2.1,8.9,2.3c3,0.2,6.1,0,9-0.9c2.9-0.8,5.7-2.2,8.1-4c2.5-1.8,4.6-4,6.5-6.6
				l0-0.1c0.1-0.1,0.3-0.2,0.4-0.1l0,0c2.2,1.1,4.5,1.2,6.6,0.4c1-0.4,1.9-1,2.6-1.8c0.7-0.8,1.2-1.8,1.5-2.8
				c0.5-2.1-0.1-4.5-1.6-6.1c-0.8-0.8-1.7-1.5-2.8-1.9c-0.5-0.2-1.1-0.3-1.7-0.4c-0.3,0-0.6,0-0.9,0l-0.2,0l-0.3,0
				C374.6,97.3,374.4,97.3,374.2,97.3z M374.6,96.8l0.3-0.2c0,0,0.1,0,0.1-0.1l0.2,0c0.3-0.1,0.7-0.1,1-0.1c0.7,0,1.3,0,2,0.2
				c1.3,0.3,2.6,0.9,3.6,1.9c2.1,1.9,3.1,4.9,2.5,7.6c-0.5,2.8-2.6,5.2-5.3,6.1c-2.7,1-5.9,0.2-7.6-1.9l0.5-0.1l0,0.1
				c-1.2,3-3.2,5.8-5.7,7.9c-2.5,2.2-5.6,3.8-8.8,4.6c-3.2,0.9-6.6,1.1-9.9,0.5c-3.3-0.6-6.4-1.8-9-3.8l0.5-0.3l0,0.1
				c0.2,2-0.3,4-1.4,5.7c-0.3,0.4-0.5,0.8-0.9,1.2l-0.2,0.3c-0.1,0.1-0.2,0.2-0.2,0.2c-0.1,0.1-0.1,0.2-0.1,0.4
				c-0.1,0.7,0.1,1.6,0.3,2.5c1,3.5,2.6,7,4.6,10.2c0.5,0.8,1,1.6,1.5,2.4c0.5,0.8,1.1,1.5,1.7,2.3c1.2,1.5,2.3,3.1,3.2,4.9
				c0.2,0.4,0.4,0.9,0.6,1.4c0.2,0.5,0.4,1,0.5,1.6c0.2,1.1,0.1,2.2-0.2,3.3c-0.4,1.1-1,2.1-1.8,2.9c-0.9,0.8-1.9,1.4-3,1.7
				c-2.3,0.6-4.8-0.1-6.4-1.7c-0.8-0.8-1.5-1.7-1.8-2.8c-0.3-1-0.5-2-0.6-3c-0.1-2,0.2-3.9,0.2-5.8c0-1.9-0.1-3.8-0.3-5.6
				c-0.2-1.9-0.5-3.7-0.9-5.5c-0.4-1.8-0.9-3.6-1.8-5.1c-0.4-0.7-1-1.4-1.6-1.6c-0.1,0-0.4-0.1-0.6-0.2l-0.7-0.2
				c-0.5-0.1-0.9-0.3-1.4-0.4c-0.9-0.3-1.9-0.7-2.7-1.3c-0.8-0.5-1.6-1.3-2.2-2.1l0.5,0l0,0c-1.1,1.9-2.9,3.5-4.9,4.4
				c-2.1,0.9-4.4,1.4-6.7,1.1c-4.6-0.4-8.8-3.4-10.8-7.5c-2.1-4.1-1.8-9.2,0.5-13c2.3-3.9,6.7-6.3,11-6.3l-0.2,0.5l0,0
				c-2-1.9-3.1-4.7-3-7.6c0.1-2.9,1.6-5.7,3.9-7.5c2.3-1.8,5.3-2.6,8.2-2.1c1.4,0.2,2.8,0.8,3.9,1.6c1.1,0.8,2.1,1.8,2.8,3l-0.5,0.1
				l0,0c0.7-2.7,1.9-5.3,3.5-7.7c0.8-1.2,1.7-2.2,2.8-3.3c1-1,2.1-1.9,3.3-2.7c4.7-3.2,10.7-4.7,16.4-4.1c5.7,0.7,11.2,3.3,15.1,7.6
				c1.9,2.1,3.5,4.5,4.6,7.1c0.2,0.7,0.5,1.3,0.7,2c0.2,0.7,0.4,1.4,0.5,2.1c0.2,0.7,0.3,1.4,0.4,2.1c0,0.4,0.1,0.7,0.1,1.1l0,0.5
				l0,0.1c0,0,0,0,0,0C374.7,96.7,374.6,96.7,374.6,96.8z"/>
		</g>
	</g>
</g>
</svg>
